<?xml version="1.0" encoding="UTF-8"?> <svg xmlns="http://www.w3.org/2000/svg" viewBox="0 0 223.73 100.79"> <defs> <style>.cls-1{fill:#575756;stroke-width:0}</style> </defs> <path d="M185.26 0c-16.3 0-31.03 10.8-36.3 26.24 3.2-3.89 8.26-6.3 13.4-6.3 9.53 0 17.31 7.66 17.31 17.27v63.38h4.71V76.95h.88c21.21 0 38.48-17.27 38.48-38.48S206.47 0 185.26 0" fill="#007c50" stroke-width="0"></path> <path d="M167.36 41.21h-.77v-1.42h1.29c.47 0 1.18.04 1.18.73 0 .75-1.01.69-1.7.69m2.28-.69c0-.84-.54-1.31-1.7-1.31h-1.96v4.43h.6v-1.96h.92l1.42 1.96h.54l-1.38-1.96c.84-.11 1.55-.3 1.55-1.16m-2.16 4.54c-2.04 0-3.57-1.59-3.57-3.64s1.53-3.57 3.57-3.57 3.57 1.61 3.57 3.57-1.57 3.64-3.57 3.64m0-7.79c-2.22 0-4.06 1.94-4.06 4.15s1.85 4.07 4.06 4.07 4.15-1.85 4.15-4.07-1.83-4.15-4.15-4.15M14.8 68.5l4.25-10.61 4.37 10.61H14.8zm4.25-18.06L6.63 80.63h3.56l3.56-9.22h10.58l3.56 9.22h3.56L19.03 50.44zm17.6 26.91V50.44h-3.22v30.19h13.45v-3.28H36.65zm16.44 0V50.44h-3.22v30.19h13.45v-3.28H53.09zm34.26-7.08c-.57 1.52-1.38 2.91-2.53 4.04-1.03 1.26-2.3 2.15-3.68 2.78-1.38.63-2.76.88-4.25.88-1.61 0-2.99-.25-4.37-.88s-2.64-1.52-3.68-2.78c-1.15-1.14-1.95-2.53-2.53-4.04s-.8-3.03-.8-4.8c0-1.64.23-3.29.8-4.8.57-1.39 1.38-2.78 2.53-4.04 1.03-1.14 2.3-2.02 3.68-2.65 1.38-.63 2.76-1.01 4.37-1.01 1.49 0 2.99.38 4.25 1.01 1.38.63 2.64 1.52 3.68 2.65 1.15 1.26 1.95 2.53 2.53 4.04s.92 3.16.92 4.8c0 1.77-.34 3.41-.92 4.8m3.11-10.86c-.8-1.9-1.84-3.66-3.22-5.05a13.976 13.976 0 00-4.71-3.41c-1.84-.76-3.68-1.26-5.63-1.26s-3.91.51-5.63 1.26c-1.84.76-3.45 1.89-4.83 3.41-1.38 1.39-2.41 3.16-3.1 5.05-.8 1.89-1.15 3.92-1.15 6.06s.34 4.17 1.15 6.06c.69 1.89 1.72 3.66 3.1 5.18 1.38 1.39 2.99 2.53 4.83 3.41 1.84.76 3.68 1.14 5.63 1.14 1.84 0 3.79-.38 5.52-1.14 1.84-.89 3.45-2.02 4.83-3.41 1.38-1.52 2.41-3.28 3.22-5.18.69-1.89 1.03-3.92 1.03-6.06s-.34-4.17-1.03-6.06m22.07-8.97v11.75H97.82V50.44H94.6v30.19h3.22V65.47h14.72v15.16h3.21V50.44h-3.21zm21.73 3.28v-3.28h-14.26v30.19h14.26v-3.28h-11.04V65.47h11.04v-3.28h-11.04v-8.47h11.04zm4.25-3.28h3.22v30.19h-3.22zm31.05-1.01l-9.55 24.88-9.54-24.88-5.52 31.2h3.11l3.45-20.34 8.5 20.97 8.51-20.97 3.45 20.34h3.22l-5.63-31.2zM7.58 98.24c.42.66 1.13 1.21 1.96 1.21 1.07 0 1.87-.52 1.87-1.79 0-2.37-4.69-1.07-4.69-4.67 0-1.81 1.3-2.91 3.15-2.91 1.13 0 2.21.6 2.88 1.49l-.99.99c-.55-.58-1.12-1.14-1.97-1.14-.94 0-1.61.6-1.61 1.57 0 2.11 4.69 1.15 4.69 4.69 0 1.82-1.4 3.12-3.18 3.12-1.4 0-2.25-.67-3.18-1.66l1.07-.9zm8.05 2.32V90.31h5.47l.31 1.34H17.1v2.9h3.45v1.35H17.1v3.31h4.64l-.42 1.35h-5.69zm8.61.18V90.07h.03l6.57 7.17v-6.69l1.46-.24v10.49h-.03l-6.57-7.17v6.93l-1.46.18zm11.11-.06V90.31l1.46-.24v10.49l-1.46.12zm9.38-1.23c2.15 0 3.91-1.88 3.91-4.02s-1.76-4.02-3.91-4.02-3.91 1.88-3.91 4.02 1.76 4.02 3.91 4.02m0-9.38c2.96 0 5.38 2.34 5.38 5.36s-2.42 5.36-5.38 5.36-5.38-2.34-5.38-5.36 2.42-5.36 5.38-5.36m9.3 5.18h1.04c1 0 1.91-.72 1.91-1.84 0-1.21-.78-1.76-1.91-1.76h-1.04v3.6zm-1.46 5.49V90.31h2.52c1.52 0 3.36.78 3.36 3.11 0 1.52-.87 2.36-2.27 2.67l3.09 4.29-1.64.42-3.57-5.21h-.03v4.97l-1.46.18zm8.8-.18V90.31h5.46l.32 1.34h-4.32v2.9h3.45v1.35h-3.45v3.31h4.65l-.42 1.35h-5.69zm8.6.18V90.07H70l6.57 7.17v-6.69l1.47-.24v10.49h-.03l-6.58-7.17v6.93l-1.46.18zm10.89-4.62h3.55v1.31h-3.55zm7.77-.87h1.04c1 0 1.91-.72 1.91-1.84 0-1.21-.78-1.76-1.91-1.76h-1.04v3.6zm-1.47 5.49V90.31h2.52c1.52 0 3.36.78 3.36 3.11 0 1.52-.87 2.36-2.27 2.67l3.09 4.29-1.64.42-3.57-5.21h-.03v4.97l-1.46.18zm9.19-.18V90.31h5.47l.31 1.34h-4.32v2.9h3.45v1.35h-3.45v3.31h4.65l-.42 1.35h-5.69zm9.24-2.32c.42.66 1.13 1.21 1.96 1.21 1.08 0 1.87-.52 1.87-1.79 0-2.37-4.69-1.07-4.69-4.67 0-1.81 1.3-2.91 3.15-2.91 1.13 0 2.21.6 2.88 1.49l-.98.99c-.55-.58-1.12-1.14-1.97-1.14-.94 0-1.61.6-1.61 1.57 0 2.11 4.69 1.15 4.69 4.69 0 1.82-1.4 3.12-3.18 3.12-1.4 0-2.26-.67-3.18-1.66l1.07-.9zm7.98 2.44V90.31l1.46-.24v10.49l-1.46.12zm6-1.47h1.09c1.73 0 3.7-1.43 3.7-3.78s-1.97-3.78-3.7-3.78h-1.09v7.56zm-1.46-8.9h2.55c3.11 0 5.17 2.48 5.17 5.12s-2.06 5.12-5.17 5.12h-2.55V90.3zm10.34 10.25V90.31h5.46l.32 1.34h-4.32v2.9h3.45v1.35h-3.45v3.31h4.64l-.41 1.35h-5.69zm8.6.18V90.07h.03l6.57 7.17v-6.69l1.46-.24v10.49h-.03l-6.57-7.17v6.93l-1.46.18zm17.94-.18h-7.55l5.44-8.91h-5.21l.3-1.34h7.11l-5.38 8.9h5.65l-.36 1.35zm2.73 0V90.31h5.47l.31 1.34h-4.32v2.9h3.45v1.35h-3.45v3.31h4.65l-.42 1.35h-5.69zm8.6.18V90.07h.03l6.57 7.17v-6.69l1.47-.24v10.49h-.03l-6.57-7.17v6.93l-1.47.18z" class="cls-1"></path> <path d="M2.3 100.56H0V37.27C0 25.2 9.8 15.39 21.84 15.39c9.87 0 18.23 6.61 20.92 15.65 2.32-4.88 7.26-8.25 12.98-8.25 6.08 0 11.17 3.57 13.34 8.78 2.22-5.16 7.36-8.78 13.33-8.78s11.04 3.64 13.23 8.82c2.21-5.18 7.36-8.82 13.35-8.82 3.89 0 7.54 1.52 10.26 4.27 1.3 1.31 2.31 2.83 3.01 4.49 2.23-5.15 7.38-8.76 13.36-8.76 3.9 0 7.7 1.61 10.42 4.41a14.21 14.21 0 012.86 4.28c2.23-5.11 7.31-8.69 13.22-8.69 8.19 0 14.61 6.36 14.61 14.49h-2.3c0-6.83-5.41-12.18-12.31-12.18s-11.92 5.27-12.11 11.81v.4l-2.3-.03v-.4c0-3.02-1.18-5.87-3.31-8.07a12.29 12.29 0 00-8.77-3.71c-6.7 0-12.17 5.38-12.25 12.03v.16h-2.3v-.18c0-3.19-1.23-6.18-3.46-8.43a12.053 12.053 0 00-8.62-3.59c-6.73 0-12.21 5.47-12.21 12.18h-2.3c0-6.72-5.42-12.18-12.08-12.18S70.2 30.56 70.2 37.27h-2.3c0-6.83-5.34-12.18-12.16-12.18s-12.08 5.47-12.08 12.18h-2.3c0-10.8-8.76-19.58-19.52-19.58S2.3 26.47 2.3 37.27v63.29z" class="cls-1"></path> </svg> 