<?xml version="1.0" encoding="UTF-8"?> <!-- Generator: Adobe Illustrator 25.0.0, SVG Export Plug-In . SVG Version: 6.00 Build 0) --> <svg xmlns="http://www.w3.org/2000/svg" xmlns:xlink="http://www.w3.org/1999/xlink" id="Ebene_1" x="0px" y="0px" viewBox="0 0 613 202" style="enable-background:new 0 0 613 202;" xml:space="preserve"> <style type="text/css"> .st0{fill:#004593;} .st1{fill:none;} .st2{fill:#828589;} </style> <g> <g> <path class="st0" d="M242.8,7.5h37c7.3,0,12.8,0.3,16.4,0.9c3.6,0.6,6.8,1.9,9.7,3.8c2.8,1.9,5.2,4.5,7.1,7.7 c1.9,3.2,2.8,6.8,2.8,10.8c0,4.3-1.2,8.3-3.5,11.9c-2.3,3.6-5.5,6.3-9.5,8.1c5.6,1.6,10,4.4,13,8.4c3,4,4.5,8.6,4.5,13.9 c0,4.2-1,8.3-2.9,12.3c-2,4-4.6,7.1-8,9.5c-3.4,2.4-7.6,3.8-12.5,4.4c-3.1,0.3-10.6,0.5-22.5,0.6h-31.5V7.5z M261.5,22.8v21.4 h12.2c7.3,0,11.8-0.1,13.6-0.3c3.2-0.4,5.7-1.5,7.5-3.3c1.8-1.8,2.7-4.2,2.7-7.2c0-2.9-0.8-5.2-2.4-7c-1.6-1.8-3.9-2.9-7-3.2 c-1.9-0.2-7.2-0.3-16-0.3H261.5z M261.5,59.6v24.7h17.3c6.7,0,11-0.2,12.8-0.6c2.8-0.5,5-1.7,6.8-3.7c1.7-2,2.6-4.6,2.6-7.9 c0-2.8-0.7-5.1-2-7.1c-1.3-1.9-3.3-3.3-5.8-4.2c-2.5-0.9-8.1-1.3-16.6-1.3H261.5z"></path> <path class="st0" d="M337.3,99.9V7.5h68.6v15.6H356v20.5h46.4v15.6H356v25.2h51.7v15.6H337.3z"></path> <path class="st0" d="M424.9,99.9V7.5h18.7v36.4h36.6V7.5h18.7v92.5h-18.7V59.5h-36.6v40.4H424.9z"></path> <path class="st0" d="M602.8,99.9h-20.3l-8.1-21h-37l-7.6,21H510l36-92.5h19.7L602.8,99.9z M568.4,63.3L555.7,29l-12.5,34.3H568.4z "></path> </g> <g> <path class="st0" d="M241.1,138.6l5.9-0.6c0.4,2,1.1,3.5,2.2,4.4c1.1,0.9,2.6,1.4,4.4,1.4c2,0,3.4-0.4,4.4-1.2 c1-0.8,1.5-1.8,1.5-2.9c0-0.7-0.2-1.3-0.6-1.8c-0.4-0.5-1.2-0.9-2.2-1.3c-0.7-0.2-2.3-0.7-4.9-1.3c-3.3-0.8-5.6-1.8-6.9-3 c-1.9-1.7-2.8-3.7-2.8-6.1c0-1.5,0.4-3,1.3-4.3c0.9-1.3,2.1-2.4,3.8-3.1c1.6-0.7,3.6-1.1,6-1.1c3.8,0,6.7,0.8,8.6,2.5 c1.9,1.7,2.9,3.9,3,6.7l-6.1,0.3c-0.3-1.6-0.8-2.7-1.7-3.4s-2.1-1-3.9-1c-1.8,0-3.2,0.4-4.2,1.1c-0.6,0.5-1,1.1-1,1.9 c0,0.7,0.3,1.3,0.9,1.8c0.8,0.6,2.6,1.3,5.6,2c3,0.7,5.2,1.4,6.6,2.2s2.5,1.8,3.3,3.1c0.8,1.3,1.2,2.9,1.2,4.8 c0,1.7-0.5,3.4-1.4,4.9c-1,1.5-2.3,2.6-4.1,3.4s-4,1.1-6.6,1.1c-3.8,0-6.8-0.9-8.8-2.7S241.5,142,241.1,138.6z"></path> <path class="st0" d="M269.7,126.5h6.2l5.2,15.6l5.1-15.6h6l-7.7,21.1l-1.4,3.8c-0.5,1.3-1,2.3-1.5,2.9s-1,1.2-1.6,1.6 c-0.6,0.4-1.3,0.7-2.2,1s-1.9,0.4-3,0.4c-1.1,0-2.2-0.1-3.3-0.4l-0.5-4.5c0.9,0.2,1.7,0.3,2.5,0.3c1.3,0,2.3-0.4,3-1.2 s1.1-1.8,1.5-3L269.7,126.5z"></path> <path class="st0" d="M295.6,142.2l5.8-0.9c0.2,1.1,0.8,2,1.5,2.6s1.8,0.9,3.2,0.9c1.5,0,2.6-0.3,3.4-0.8c0.5-0.4,0.8-0.9,0.8-1.5 c0-0.4-0.1-0.8-0.4-1.1c-0.3-0.3-0.9-0.5-1.9-0.8c-4.7-1-7.6-2-8.9-2.8c-1.7-1.2-2.6-2.8-2.6-4.9c0-1.9,0.8-3.5,2.2-4.8 c1.5-1.3,3.8-1.9,7-1.9c3,0,5.2,0.5,6.7,1.5s2.5,2.4,3,4.3l-5.5,1c-0.2-0.9-0.7-1.5-1.3-2c-0.7-0.5-1.6-0.7-2.8-0.7 c-1.5,0-2.6,0.2-3.3,0.6c-0.4,0.3-0.7,0.7-0.7,1.2c0,0.4,0.2,0.8,0.6,1.1c0.5,0.4,2.3,0.9,5.4,1.6c3.1,0.7,5.2,1.6,6.5,2.6 c1.2,1,1.8,2.5,1.8,4.3c0,2-0.8,3.7-2.5,5.2s-4.2,2.2-7.4,2.2c-3,0-5.3-0.6-7.1-1.8S296.1,144.2,295.6,142.2z"></path> <path class="st0" d="M332.9,126.5v4.6h-4v8.8c0,1.8,0,2.8,0.1,3.1c0.1,0.3,0.2,0.5,0.5,0.7c0.3,0.2,0.6,0.3,1,0.3 c0.5,0,1.3-0.2,2.3-0.6l0.5,4.5c-1.3,0.6-2.9,0.9-4.6,0.9c-1,0-2-0.2-2.8-0.5c-0.8-0.4-1.5-0.8-1.8-1.4c-0.4-0.6-0.7-1.3-0.8-2.3 c-0.1-0.7-0.2-2-0.2-4.1v-9.5h-2.7v-4.6h2.7v-4.4l5.8-3.4v7.7H332.9z"></path> <path class="st0" d="M351.3,141.4l5.8,1c-0.7,2.1-1.9,3.7-3.5,4.8c-1.6,1.1-3.6,1.7-6,1.7c-3.8,0-6.6-1.2-8.5-3.7 c-1.4-2-2.2-4.5-2.2-7.5c0-3.6,0.9-6.5,2.8-8.5s4.3-3.1,7.2-3.1c3.3,0,5.8,1.1,7.7,3.2c1.9,2.2,2.8,5.4,2.7,9.9h-14.5 c0,1.7,0.5,3.1,1.4,4s2,1.4,3.3,1.4c0.9,0,1.7-0.2,2.3-0.7C350.5,143.3,350.9,142.5,351.3,141.4z M351.6,135.6 c0-1.7-0.5-3-1.3-3.8s-1.8-1.3-3-1.3c-1.3,0-2.3,0.5-3.1,1.4c-0.8,0.9-1.2,2.2-1.2,3.8H351.6z"></path> <path class="st0" d="M363.3,126.5h5.3v3c1.9-2.3,4.2-3.5,6.8-3.5c1.4,0,2.6,0.3,3.7,0.9c1,0.6,1.9,1.5,2.5,2.6c1-1.2,2-2,3.1-2.6 c1.1-0.6,2.3-0.9,3.6-0.9c1.6,0,3,0.3,4.1,1c1.1,0.7,1.9,1.6,2.5,2.9c0.4,0.9,0.6,2.4,0.6,4.5v14h-5.8v-12.5 c0-2.2-0.2-3.6-0.6-4.2c-0.5-0.8-1.4-1.2-2.5-1.2c-0.8,0-1.6,0.2-2.3,0.7c-0.7,0.5-1.2,1.2-1.5,2.2c-0.3,1-0.5,2.5-0.5,4.5v10.5 h-5.8v-12c0-2.1-0.1-3.5-0.3-4.1c-0.2-0.6-0.5-1.1-1-1.4c-0.4-0.3-1-0.5-1.8-0.5c-0.9,0-1.7,0.2-2.4,0.7s-1.2,1.2-1.5,2.1 c-0.3,0.9-0.5,2.4-0.5,4.5v10.6h-5.8V126.5z"></path> <path class="st0" d="M402.8,148.4v-30.2h5.8v10.9c1.8-2,3.9-3.1,6.4-3.1c2.7,0,4.9,1,6.6,2.9c1.7,1.9,2.6,4.7,2.6,8.3 c0,3.7-0.9,6.6-2.7,8.6c-1.8,2-3.9,3-6.5,3c-1.3,0-2.5-0.3-3.7-0.9c-1.2-0.6-2.3-1.6-3.1-2.8v3.2H402.8z M408.5,137 c0,2.3,0.4,3.9,1.1,5c1,1.5,2.3,2.3,4,2.3c1.3,0,2.4-0.5,3.3-1.6c0.9-1.1,1.4-2.8,1.4-5.2c0-2.5-0.5-4.3-1.4-5.4 c-0.9-1.1-2.1-1.7-3.5-1.7c-1.4,0-2.5,0.5-3.5,1.6S408.5,134.8,408.5,137z"></path> <path class="st0" d="M434.8,133.2l-5.3-0.9c0.6-2.1,1.6-3.7,3.1-4.7c1.4-1,3.6-1.5,6.4-1.5c2.6,0,4.5,0.3,5.8,0.9 c1.3,0.6,2.2,1.4,2.7,2.3c0.5,0.9,0.8,2.7,0.8,5.2l-0.1,6.8c0,1.9,0.1,3.3,0.3,4.3c0.2,0.9,0.5,1.9,1,2.9h-5.7 c-0.2-0.4-0.3-1-0.6-1.7c-0.1-0.3-0.2-0.6-0.2-0.7c-1,1-2,1.7-3.2,2.2c-1.1,0.5-2.3,0.7-3.6,0.7c-2.3,0-4-0.6-5.3-1.8 c-1.3-1.2-1.9-2.8-1.9-4.6c0-1.2,0.3-2.3,0.9-3.3c0.6-1,1.4-1.7,2.5-2.2c1.1-0.5,2.6-1,4.6-1.4c2.7-0.5,4.6-1,5.6-1.4v-0.6 c0-1.1-0.3-1.9-0.8-2.4c-0.6-0.5-1.6-0.7-3.1-0.7c-1,0-1.8,0.2-2.4,0.6C435.6,131.5,435.2,132.2,434.8,133.2z M442.6,137.9 c-0.7,0.2-1.9,0.5-3.5,0.9s-2.7,0.7-3.2,1c-0.8,0.5-1.1,1.2-1.1,2c0,0.8,0.3,1.5,0.9,2.1c0.6,0.6,1.4,0.9,2.3,0.9c1,0,2-0.3,3-1 c0.7-0.5,1.2-1.2,1.4-1.9c0.2-0.5,0.2-1.4,0.2-2.8V137.9z"></path> <path class="st0" d="M470.1,148.4v-3.3c-0.8,1.2-1.8,2.1-3.1,2.8c-1.3,0.7-2.7,1-4.1,1c-1.5,0-2.8-0.3-4-1s-2-1.6-2.5-2.7 c-0.5-1.2-0.8-2.8-0.8-4.8v-13.9h5.8v10.1c0,3.1,0.1,5,0.3,5.7c0.2,0.7,0.6,1.2,1.2,1.6c0.6,0.4,1.3,0.6,2.1,0.6 c1,0,1.9-0.3,2.7-0.8c0.8-0.5,1.3-1.2,1.6-2c0.3-0.8,0.4-2.8,0.4-5.9v-9.2h5.8v21.9H470.1z"></path> <path class="st0" d="M481.1,142.2l5.8-0.9c0.2,1.1,0.8,2,1.5,2.6s1.8,0.9,3.2,0.9c1.5,0,2.6-0.3,3.4-0.8c0.5-0.4,0.8-0.9,0.8-1.5 c0-0.4-0.1-0.8-0.4-1.1c-0.3-0.3-0.9-0.5-1.9-0.8c-4.7-1-7.6-2-8.9-2.8c-1.7-1.2-2.6-2.8-2.6-4.9c0-1.9,0.8-3.5,2.2-4.8 c1.5-1.3,3.8-1.9,7-1.9c3,0,5.2,0.5,6.7,1.5s2.5,2.4,3,4.3l-5.5,1c-0.2-0.9-0.7-1.5-1.3-2c-0.7-0.5-1.6-0.7-2.8-0.7 c-1.5,0-2.6,0.2-3.3,0.6c-0.4,0.3-0.7,0.7-0.7,1.2c0,0.4,0.2,0.8,0.6,1.1c0.5,0.4,2.3,0.9,5.4,1.6c3.1,0.7,5.2,1.6,6.5,2.6 c1.2,1,1.8,2.5,1.8,4.3c0,2-0.8,3.7-2.5,5.2s-4.2,2.2-7.4,2.2c-3,0-5.3-0.6-7.1-1.8S481.7,144.2,481.1,142.2z"></path> <path class="st0" d="M518.4,126.5v4.6h-4v8.8c0,1.8,0,2.8,0.1,3.1c0.1,0.3,0.2,0.5,0.5,0.7c0.3,0.2,0.6,0.3,1,0.3 c0.5,0,1.3-0.2,2.3-0.6l0.5,4.5c-1.3,0.6-2.9,0.9-4.6,0.9c-1,0-2-0.2-2.8-0.5c-0.8-0.4-1.5-0.8-1.8-1.4c-0.4-0.6-0.7-1.3-0.8-2.3 c-0.1-0.7-0.2-2-0.2-4.1v-9.5h-2.7v-4.6h2.7v-4.4l5.8-3.4v7.7H518.4z"></path> <path class="st0" d="M522.8,137.2c0-1.9,0.5-3.8,1.4-5.6c0.9-1.8,2.3-3.2,4-4.1c1.7-0.9,3.7-1.4,5.8-1.4c3.3,0,6,1.1,8.1,3.2 c2.1,2.2,3.2,4.9,3.2,8.2c0,3.3-1.1,6.1-3.2,8.2c-2.1,2.2-4.8,3.3-8.1,3.3c-2,0-3.9-0.5-5.7-1.4c-1.8-0.9-3.2-2.2-4.2-4 S522.8,139.7,522.8,137.2z M528.7,137.5c0,2.2,0.5,3.8,1.5,5c1,1.2,2.3,1.7,3.8,1.7s2.8-0.6,3.8-1.7c1-1.2,1.5-2.8,1.5-5 c0-2.1-0.5-3.8-1.5-4.9c-1-1.2-2.3-1.7-3.8-1.7s-2.8,0.6-3.8,1.7C529.2,133.6,528.7,135.3,528.7,137.5z"></path> <path class="st0" d="M549,126.5h3.2v-1.6c0-1.8,0.2-3.2,0.6-4.1c0.4-0.9,1.1-1.6,2.2-2.2c1.1-0.6,2.4-0.9,4-0.9 c1.7,0,3.3,0.2,4.8,0.7l-0.8,4c-0.9-0.2-1.8-0.3-2.7-0.3c-0.8,0-1.4,0.2-1.8,0.6c-0.4,0.4-0.5,1.1-0.5,2.3v1.5h4.3v4.6h-4.3v17.3 h-5.8v-17.3H549V126.5z"></path> <path class="st0" d="M564.8,126.5h3.2v-1.6c0-1.8,0.2-3.2,0.6-4.1c0.4-0.9,1.1-1.6,2.2-2.2c1.1-0.6,2.4-0.9,4-0.9 c1.7,0,3.3,0.2,4.8,0.7l-0.8,4c-0.9-0.2-1.8-0.3-2.7-0.3c-0.8,0-1.4,0.2-1.8,0.6c-0.4,0.4-0.5,1.1-0.5,2.3v1.5h4.3v4.6h-4.3v17.3 H568v-17.3h-3.2V126.5z"></path> <path class="st0" d="M595.8,141.4l5.8,1c-0.7,2.1-1.9,3.7-3.5,4.8c-1.6,1.1-3.6,1.7-6,1.7c-3.8,0-6.6-1.2-8.5-3.7 c-1.4-2-2.2-4.5-2.2-7.5c0-3.6,0.9-6.5,2.8-8.5s4.3-3.1,7.2-3.1c3.3,0,5.8,1.1,7.7,3.2c1.9,2.2,2.8,5.4,2.7,9.9h-14.5 c0,1.7,0.5,3.1,1.4,4s2,1.4,3.3,1.4c0.9,0,1.7-0.2,2.3-0.7C595,143.3,595.5,142.5,595.8,141.4z M596.1,135.6c0-1.7-0.5-3-1.3-3.8 s-1.8-1.3-3-1.3c-1.3,0-2.3,0.5-3.1,1.4c-0.8,0.9-1.2,2.2-1.2,3.8H596.1z"></path> </g> </g> <g> <rect x="76.3" y="78.6" class="st1" width="47" height="46"></rect> </g> <g> <polygon class="st1" points="147.1,124.6 168.7,124.6 168.7,32.2 76.3,32.2 76.3,54.8 147.1,54.8 "></polygon> </g> <g> <polygon class="st1" points="52.5,78.6 30.9,78.6 30.9,171 123.3,171 123.3,148.4 52.5,148.4 "></polygon> </g> <g> <polygon class="st2" points="123.3,78.6 123.3,124.6 147.1,124.6 147.1,54.8 76.3,54.8 76.3,78.6 "></polygon> </g> <polygon class="st2" points="123.3,124.6 123.3,148.4 123.3,171 30.9,171 30.9,78.6 52.5,78.6 52.5,54.8 7.1,54.8 7.1,194.8 147.1,194.8 147.1,148.4 147.1,124.6 "></polygon> <polygon class="st0" points="52.5,8.4 52.5,54.8 52.5,78.6 52.5,148.4 123.3,148.4 123.3,124.6 76.3,124.6 76.3,78.6 76.3,54.8 76.3,32.2 168.7,32.2 168.7,124.6 147.1,124.6 147.1,148.4 192.5,148.4 192.5,8.4 "></polygon> </svg> 