<?xml version="1.0" encoding="UTF-8"?> <svg xmlns="http://www.w3.org/2000/svg" viewBox="0 0 163.65 34.62"> <defs> <style>.cls-1{fill:#fff;}</style> </defs> <g id="Ebene_2" data-name="Ebene 2"> <g id="Ebene_1-2" data-name="Ebene 1"> <path class="cls-1" d="M0,4.31V34.46H30.15V4.31Zm28,8.41c-.15.52-.36,1-.55,1.55a7.52,7.52,0,0,1-.61,1.2c-.23.38-.86,1.18-.86,1.18s-.69.9-1,1.32c-.52.61-.86,1.13-1.34,1.68l-.84,1a4.36,4.36,0,0,1-.88.65c-.13.08-.67-.25-.92-.51s.13-.36.27-.5.67-.57.67-.57.52-.71.76-1a5.77,5.77,0,0,0-.57-2.23,2,2,0,0,0-.67-.92,4.68,4.68,0,0,0-.92-.53s-.59-.15-.95-.21a5.31,5.31,0,0,0-1.51.11c-1.35.15-1.05.17-1.76.27,0,.38.06.86.08,1.41,0,.29,0,.63,0,.9s.08.74.08.74a5.27,5.27,0,0,0,.27,1.09,6,6,0,0,0,1.6,1.95,9.82,9.82,0,0,1,1,1,27.69,27.69,0,0,1,1.79,2.44s.71,1.76,1,2.61c.1.25.32.9.32.9a8,8,0,0,1,.38,1.07c.19.86.19,1.72-.46,1.91a1.29,1.29,0,0,1-.8,0c-.23,0-.69-.94-.76-1.3s-.38-1.79-.38-1.79-.52-1.45-.71-1.79a18.3,18.3,0,0,0-1.2-1.81,14.18,14.18,0,0,0-1.2-1.37s-1-.71-1.53-1.05A2,2,0,0,0,14,21.82c-.23.06-.46.15-.76.23s-.61.5-.93.78-1.26,1.3-1.26,1.3A16.51,16.51,0,0,0,9.93,26,14.12,14.12,0,0,0,9,28.56c-.19,1-.5,2.63-1.81,1.76-.27-.17-.21-.78-.17-1.18.1-.76.42-1.66.5-2.21a7.87,7.87,0,0,1,.88-2.21,10,10,0,0,1,.82-1.51,19,19,0,0,1,1.34-1.49s.69-.55,1-.9a4.37,4.37,0,0,0,.5-1.68,11.61,11.61,0,0,0,0-1.56c0-.27-.15-1.43-.15-1.43s-.13-1-.15-1.26a5,5,0,0,1-.95,0l-1.24-.11s-1.05.1-1.55.13a7.46,7.46,0,0,0-1.22.29,5.37,5.37,0,0,0-.8.15c.06.26.13.53.21.78l.19,1.24c.1.67.06.88-.38,1-.74.15-.69.11-.86-.55a14.78,14.78,0,0,1-.42-1.43c-.11-.52-.25-1.58-.25-1.58L4.25,13.1s-.19-.69-.34-1.35c-.08-.27-.31-.21-.55-.19-.82.11-1-.17-1-.17l-.1-.71A2.9,2.9,0,0,1,2.08,10c0-.29.06-.53.73-.63s1.93-.08,2.61-.17S6.51,8.88,6.74,9s.19.36.27.71c0,.13.15.59.15.59l.06.52c-.23,0-.46.15-.67.19a5.5,5.5,0,0,1-.76.13c-.32.06-.32.38-.32.53a11.2,11.2,0,0,0,.42,2c.44,0,1.51-.21,1.89-.21.61,0,2.67-.31,2.67-.31l1.89-.06c.44-.08.38-.36.38-.69a1.6,1.6,0,0,0-.25-.69,5,5,0,0,0-.4-.4c-.63-.53-.38-2.4.13-3a4.77,4.77,0,0,1,.63-.48,1.42,1.42,0,0,1,1-.29,2.15,2.15,0,0,1,1.77.71,3,3,0,0,1,.69,1.56,2,2,0,0,1-.63,1.66,1.39,1.39,0,0,0-.44,1.15c0,.21.19.3.36.32a4.74,4.74,0,0,0,.92-.06c.32,0,.65,0,1,0a17.28,17.28,0,0,1,1.89.19,5.91,5.91,0,0,1,2.39.59,6.29,6.29,0,0,1,.94.92c.21.29.42.55.61.84a5.67,5.67,0,0,1,.63,1.87,9.38,9.38,0,0,0,1.35-1.91c.23-.42.55-.74.46-.8-.34-.21-.78-.23-1.16-.46-.19-.11.1-.42.53-1,.08-.11.21-.44.29-.55a5.69,5.69,0,0,1,.9-1.07,3.45,3.45,0,0,1,1-.4C27.87,11.1,28.29,11.57,28,12.72Z"></path> <path class="cls-1" d="M38.5,23.2h6.73c5,0,8.19-2.55,8.19-9.45S50.2,4.31,45.28,4.31H38.5V23.2Zm5-3.57V7.87h1.76c2.08,0,3,1.38,3,5.88,0,3.67-1,5.88-3,5.88ZM60.93,0H57.15V3.17h3.78V0Zm5.51,0H62.66V3.17h3.78V0ZM65.08,23.2h5L64.92,4.31H58.67L53.48,23.2h5l.85-3.86h4.9l.85,3.86Zm-5-7.32L61.16,11a29,29,0,0,0,.59-2.95h0c.16,1.12.37,2,.59,2.95l1.06,4.87ZM71.78,23.2H76V13c0-1.22,0-2.47-.11-3.62H76a17.66,17.66,0,0,0,.32,2L78.85,23.2h3.7L85,11.44c.13-.61.24-1.36.32-2h.08c-.08,1.2-.08,2.45-.08,3.64V23.19h4.42V4.31H83L81.2,13.25a19.54,19.54,0,0,0-.37,2.69h-.08a17.27,17.27,0,0,0-.37-2.66l-1.92-9H71.78V23.2Zm20.81,0h4.2V13c0-1.22,0-2.47-.11-3.62h.08a17.66,17.66,0,0,0,.32,2L99.66,23.2h3.7l2.45-11.76c.13-.61.24-1.36.32-2h.08c-.08,1.2-.08,2.45-.08,3.64V23.19h4.42V4.31h-6.73L102,13.25a19.54,19.54,0,0,0-.37,2.69h-.08a17.27,17.27,0,0,0-.37-2.66l-1.92-9H92.59V23.2Zm25.83,0V4.31h-5V23.2Zm8.6.45c4.5,0,7.08-2.63,7.08-6.2,0-2.77-1-4.39-3.91-5.37l-2.93-1c-1.38-.45-2.05-1.14-2.05-2s.77-1.49,1.94-1.49a3.72,3.72,0,0,1,3.43,2.85l3.86-2.29c-1.09-3-3.67-4.26-7.08-4.26-4,0-6.84,2.13-6.84,5.75a5.27,5.27,0,0,0,4,5.53l2.9.9c1.46.43,1.81,1.06,1.81,2s-.69,1.65-2,1.65c-1.54,0-2.61-1-3.43-3l-4.2,2.18A7.51,7.51,0,0,0,127,23.65Zm15.88,0c4.82,0,7.88-2.71,7.88-9.9s-3.06-9.9-7.88-9.9S135,6.56,135,13.75s3,9.9,7.88,9.9Zm0-3.88c-1.7,0-2.71-1.12-2.71-6s1-6,2.71-6,2.69,1.09,2.69,6-1,6-2.69,6Zm9.87,3.43h10.88V19.05H157.8V4.31h-5V23.2Z"></path> <path class="cls-1" d="M43.93,32.56c0,1.06-.75,1.89-2.28,1.89H38.5V27.73h3c1.53,0,2.23.75,2.23,1.73A1.51,1.51,0,0,1,42.55,31,1.52,1.52,0,0,1,43.93,32.56ZM40.1,28.87v1.64h1c.72,0,1-.37,1-.82s-.3-.81-1-.81h-1Zm2.16,3.56c0-.52-.35-.87-1-.87H40.1v1.77h1.11C41.93,33.33,42.26,32.94,42.26,32.43Z"></path> <path class="cls-1" d="M48.84,32.89H46.36l-.51,1.57h-1.6l2.44-6.72h1.83L51,34.46H49.35Zm-.37-1.13-.62-1.87c-.09-.29-.18-.61-.25-.95h0a6.59,6.59,0,0,1-.25.95l-.62,1.87Z"></path> <path class="cls-1" d="M53.15,27.74V32a1.25,1.25,0,1,0,2.5,0v-4.3h1.6v4.37c0,1.53-1.06,2.51-2.85,2.51s-2.85-1-2.85-2.51V27.74Z"></path> <path class="cls-1" d="M57.69,33.06l1.18-.83a2,2,0,0,0,1.83,1.15c.64,0,1.15-.24,1.15-.77s-.29-.69-1-.83l-.9-.19c-1.17-.26-1.85-.89-1.85-2s1-2,2.62-2a2.86,2.86,0,0,1,2.67,1.33l-1,.88a1.88,1.88,0,0,0-1.73-1c-.63,0-1,.26-1,.69s.26.65,1,.81l1,.21c1.19.26,1.84.83,1.84,2s-1,2.16-2.74,2.16A3.07,3.07,0,0,1,57.69,33.06Z"></path> <path class="cls-1" d="M69.07,29h-2v5.45H65.52V29H63.57V27.74h5.5Z"></path> <path class="cls-1" d="M69.28,31.1a3.32,3.32,0,1,1,6.62,0,3.32,3.32,0,1,1-6.62,0Zm5,0c0-1.42-.62-2.27-1.67-2.27s-1.67.85-1.67,2.27.62,2.27,1.67,2.27S74.25,32.52,74.25,31.1Z"></path> <path class="cls-1" d="M78.35,29V30.5h2.83v1.19H78.35v2.76h-1.6V27.73h4.6v1.21h-3Z"></path> <path class="cls-1" d="M83.78,29V30.5h2.83v1.19H83.78v2.76h-1.6V27.73h4.6v1.21h-3Z"></path> <path class="cls-1" d="M93.39,34.46h-1.6V31.67H89.21v2.79h-1.6V27.74h1.6v2.7h2.58v-2.7h1.6Z"></path> <path class="cls-1" d="M98.69,32.89H96.21l-.51,1.57H94.1l2.44-6.72h1.83l2.44,6.72H99.2Zm-.37-1.13-.62-1.87c-.09-.29-.18-.61-.25-.95h0a6.59,6.59,0,0,1-.25.95l-.62,1.87Z"></path> <path class="cls-1" d="M101.51,27.74h1.77l2.16,3.83a8.27,8.27,0,0,1,.41.87h0c0-.27,0-.54,0-.86V27.74h1.47v6.72h-1.7l-2.23-3.87a6.7,6.7,0,0,1-.4-.82h0c0,.27,0,.56,0,.89v3.8h-1.47V27.74Z"></path> <path class="cls-1" d="M108.6,27.74h2.68a3.13,3.13,0,0,1,3.32,3.32,3.18,3.18,0,0,1-3.34,3.4H108.6Zm2.59,5.54c1.13,0,1.76-1,1.76-2.22s-.59-2.15-1.74-2.15h-1v4.37Z"></path> <path class="cls-1" d="M120.11,33.27v1.18h-4.66V27.73h4.6v1.18h-3v1.51h2.84v1.17h-2.84v1.67h3.06Z"></path> <path class="cls-1" d="M121.15,27.74h1.6v5.42h2.72v1.3h-4.32Z"></path> </g> </g> </svg> 