<?xml version="1.0" encoding="UTF-8"?> <!-- Generator: Adobe Illustrator 24.2.3, SVG Export Plug-In . SVG Version: 6.00 Build 0) --> <svg xmlns="http://www.w3.org/2000/svg" xmlns:xlink="http://www.w3.org/1999/xlink" id="Ebene_1" x="0px" y="0px" viewBox="0 0 841.9 125.3" style="enable-background:new 0 0 841.9 125.3;" xml:space="preserve"> <style type="text/css"> .st0{fill:#FFFFFF;} </style> <g> <g> <path class="st0" d="M149.9,12.4h28.2v13.8h-10.7v25.6h10.7v13.8h-10.7v49.1h-17.5V12.4z"></path> <path class="st0" d="M189.5,12.4H207V101h10.8v13.8h-28.3V12.4z"></path> <path class="st0" d="M227.6,12.4h17.5v102.4h-17.5V12.4z"></path> <path class="st0" d="M260.1,12.4h28.7v13.8h-11.2v25.6h11.2v13.8h-11.2V101h11.2v13.8h-28.7V12.4z"></path> <path class="st0" d="M317,72.3v23.6c0,3.5,0.9,5.2,3.1,5.2c2.2,0,3.1-1.7,3.1-5.5V76.7c0-5.5-0.3-6-3.7-8l-0.9-0.6l-10.1-6 c-7.4-4.3-8.9-7.1-8.9-16.4V29.4v-1.2c0-7.5,1.5-11,6-13.7c3.2-1.9,6.1-2.3,15.5-2.3c8.3,0,11,0.5,14.3,2.8 c3.8,2.8,5.2,6.3,5.2,12.9v2v17.8h-17.3V32c0-4.9-0.8-6.1-3.1-6.1c-2.3,0-3.1,1.4-3.1,5.7V32v14c0,3.5,0.2,3.8,2.3,5.2l14.3,8.8 c5.5,3.5,6.9,6.3,6.9,14.4v1.1V98c0,7.4-0.9,10.4-4.1,13.3c-3.1,2.9-6.6,3.7-16.9,3.7c-7.8,0-10.4-0.5-13.4-2 c-4.8-2.6-6.6-6.4-6.6-13.5v-1.8V72.3H317z"></path> <path class="st0" d="M353.2,12.4h28.7v13.8h-11.2v25.6h11.2v13.8h-11.2V101h11.2v13.8h-28.7V12.4z"></path> <path class="st0" d="M394,12.4h18l9.7,48v-48H437v102.4h-17.8l-9.8-51.4v51.4H394L394,12.4L394,12.4z"></path> <path class="st0" d="M486.2,102L504,26.2h-16.3V12.4h33.8v12.9l-18,75.7h18v13.8h-35.3L486.2,102L486.2,102z"></path> <path class="st0" d="M531.8,12.4h28.7v13.8h-11.2v25.6h11.2v13.8h-11.2V101h11.2v13.8h-28.7V12.4z"></path> <path class="st0" d="M572.6,12.4h18l9.7,48v-48h15.3v102.4h-17.8l-9.8-51.4v51.4h-15.3V12.4z"></path> <path class="st0" d="M632.9,26.2h-9.7V12.4H660v13.8h-9.7v88.6h-17.5V26.2z"></path> <path class="st0" d="M667.3,12.4h22.6h3.1c6.1,0.1,9.7,1.5,12.4,4.8c2.5,2.9,2.9,5.1,2.9,12.7v2.6v18.3c0,8.3-1.1,10.4-7.4,13.7 c5.2,1.8,7.4,5.2,7.4,11.8v1.8v36.7H691V78.6c0-0.2,0-0.3,0-0.6l-0.2-1.7c0-3.8-1.2-4.9-4.9-4.9h-1.1v43.4h-17.5V12.4z M684.8,57.5h1.8h0.8c2.3-0.2,3.5-1.4,3.5-4.1v-1.1V31.4v-1.4c0-2.8-1.1-3.8-3.8-3.8h-0.8h-1.5L684.8,57.5L684.8,57.5z"></path> <path class="st0" d="M762.2,97.6v2c0,6.6-1.4,10-5.4,12.7c-3.4,2.3-6,2.8-16.1,2.8c-9,0-12.6-0.9-15.8-4.3 c-2.8-2.8-3.5-5.5-3.5-12.7V12.4h17.3v82.7c0,4.6,0.8,6.1,3.1,6.1s3.1-1.7,3.1-6V12.4h17.3L762.2,97.6L762.2,97.6z"></path> <path class="st0" d="M776,12.4h24.5l4.6,49.1l4.6-49.1h24.6v102.4h-15.8v-58l-7.7,58h-11.2l-7.7-58v58h-16L776,12.4L776,12.4z"></path> <rect x="456.1" y="58.6" class="st0" width="13.8" height="13.8"></rect> </g> <path class="st0" d="M12.9,12.3v103.2H116V12.3H12.9z M81.7,81.1H47.3V46.7h34.4C81.6,46.7,81.6,81.1,81.7,81.1z"></path> </g> </svg> 