<?xml version="1.0" encoding="UTF-8"?> <svg xmlns="http://www.w3.org/2000/svg" xmlns:xlink="http://www.w3.org/1999/xlink" baseProfile="tiny" x="0px" y="0px" width="411px" height="241px" viewBox="0 0 411 241" overflow="visible" xml:space="preserve" fill="#FFFFFF"> <g id="Vordergrund"> <g> <polygon fill-rule="evenodd" stroke="#FFFFFF" stroke-width="0" stroke-miterlimit="3.8637" points="31.012,160.504 19.735,160.504 19.735,141.803 4.601,141.803 4.601,189.301 19.735,189.301 19.735,171.031 31.012,171.031 31.012,189.301 46.147,189.301 46.147,141.803 31.012,141.803"></polygon> <rect x="52.04" y="141.803" fill-rule="evenodd" stroke="#FFFFFF" stroke-width="0" stroke-miterlimit="3.8637" width="15.133" height="47.498"></rect> <polygon fill-rule="evenodd" stroke="#FFFFFF" stroke-width="0" stroke-miterlimit="3.8637" points="73.012,189.301 87.75,189.301 87.627,169.984 98.001,189.301 112.469,189.301 112.469,141.803 97.731,141.803 97.854,161.723 87.102,141.803 73.012,141.803"></polygon> <polygon fill-rule="evenodd" stroke="#FFFFFF" stroke-width="0" stroke-miterlimit="3.8637" points="156.2,141.803 115.704,141.803 115.704,152.58 127.946,152.58 127.946,189.301 143.956,189.301 143.956,152.58 156.2,152.58"></polygon> <polygon fill-rule="evenodd" stroke="#FFFFFF" stroke-width="0" stroke-miterlimit="3.8637" points="159.616,189.301 191.682,189.301 191.682,178.533 174.372,178.533 174.372,171.075 191.537,171.075 191.537,160.307 174.372,160.307 174.372,152.57 191.613,152.57 191.613,141.803 159.616,141.803"></polygon> <path fill-rule="evenodd" stroke="#FFFFFF" stroke-width="0" stroke-miterlimit="3.8637" d="M281.972,166.535 c0.218-7.218-8.121-6.964-8.121-6.964l-13.962-0.063l-0.012-7.703l21.924-0.016v-9.78l-28.254,0.062 c-6.357,0.014-8.734-0.035-8.734,3.906v18.901c0,8.173,8.38,4.611,22.16,5.377l0.069,8.407l-22.302-0.033v10.654l28.254-0.012 c6.356-0.002,8.982-0.887,8.981-4.831C281.976,184.44,281.921,168.229,281.972,166.535z"></path> <polygon fill-rule="evenodd" stroke="#FFFFFF" stroke-width="0" stroke-miterlimit="3.8637" points="287.871,189.301 319.938,189.301 319.938,178.533 302.627,178.533 302.627,171.075 319.792,171.075 319.792,160.307 302.627,160.307 302.627,152.57 319.867,152.57 319.867,141.803 287.871,141.803"></polygon> <polygon fill-rule="evenodd" stroke="#FFFFFF" stroke-width="0" stroke-miterlimit="3.8637" points="325.738,189.301 357.805,189.301 357.805,178.533 340.495,178.533 340.495,171.075 357.659,171.075 357.659,160.307 340.495,160.307 340.495,152.57 357.736,152.57 357.736,141.803 325.738,141.803"></polygon> <rect x="275.688" y="23.727" transform="matrix(-0.7071 0.7071 -0.7071 -0.7071 599.9518 -107.8207)" fill-rule="evenodd" width="93.237" height="93.237"></rect> <path fill-rule="evenodd" fill="#F39200" d="M286.598,94.145l-23.799-23.799l23.799-23.8V94.145z M334.275,117.885l-11.969,11.969 l-11.104-11.105l-0.016-31.959h23.088V117.885z M358.451,46.981l23.363,23.364l-23.363,23.363V46.981z M322.307,10.837 l11.969,11.97l0.021,31.75h-23.109v-32.6L322.307,10.837z"></path> <path fill-rule="evenodd" d="M218.238,230.287h3.033H218.238z"></path> <path fill-rule="evenodd" d="M283.476,230.287h3.03H283.476z"></path> <polygon fill-rule="evenodd" points="333.812,230.287 336.844,230.287 345.332,230.287 348.326,230.287 356.813,230.287 359.847,230.287"></polygon> <path fill-rule="evenodd" stroke="#FFFFFF" stroke-width="0" stroke-miterlimit="3.8637" d="M212.763,152.615h10.911l0.002,7.701 h-10.913V152.615z M197.509,189.301h15.133v-19.05l10.904,0.001l-0.005,19.049h14.821c-0.471-17.625,1.826-22.656-4.578-23.537 c5.967-1.525,4.146-4.539,4.514-11.945c0.578-11.674-0.947-11.875-6.415-11.881c0,0-4.171-0.01-8.845-0.01h-25.53V189.301z"></path> <path fill-rule="evenodd" stroke="#FFFFFF" stroke-width="0" stroke-miterlimit="3.8637" d="M379.014,152.615h10.91l0.004,7.701 h-10.914V152.615z M363.76,189.301h15.135v-19.05l10.904,0.001l-0.006,19.049h14.821c-0.47-17.625,1.828-22.656-4.576-23.537 c5.967-1.525,4.144-4.539,4.511-11.945c0.581-11.674-0.929-11.875-6.415-11.881c0,0-4.171-0.01-8.843-0.01H363.76V189.301z"></path> <path fill-rule="evenodd" d="M10.288,205.287h5.824c6.272,0,8.624,2.6,8.624,5.561c0,4-4.312,5.639-8.399,5.639h-6.16 L10.288,205.287z M5.192,230.567h4.815l0.225-11.44h5.544c6.384,0,13.775-2.119,13.775-8.279c0-5.28-4.984-7.961-12.32-7.961 H5.528L5.192,230.567z"></path> <path fill-rule="evenodd" d="M58.436,228.047c-0.729,0.36-1.4,0.68-2.353,0.68c-1.735,0-2.016-1.398-2.016-2.84 c0-3.52,0.447-7,0.447-10.76c0-3.08-2.352-5.039-7-5.039c-4.031,0-5.824,0.719-11.423,3.319l1.848,2.08 c4.088-2.2,5.88-2.761,8.063-2.761c2.968,0,4.256,1.281,4.256,3c0,0.84-0.056,1.682-0.112,2.521 c-6.104,0.159-16.296,1.479-16.296,7.119c0,3.359,3.136,5.76,8.065,5.76c3.583,0,6.271-1.439,8.399-3.32 c0.224,1.682,1.624,3.32,4.144,3.32c1.96,0,3.641-0.56,5.209-1.439L58.436,228.047z M49.923,225.807 c-1.735,1.521-3.864,2.92-6.607,2.92c-3.08,0-4.984-1.159-4.984-3.398c0-3.4,4.032-4.441,11.815-5.16L49.923,225.807z"></path> <path fill-rule="evenodd" d="M63.869,230.567h4.479l0.225-13.08c2.408-3.2,5.375-4.28,7.224-4.28c0.616,0,1.288,0.12,1.736,0.2 l1.343-3.04c-0.615-0.16-1.455-0.279-2.407-0.279c-4.032,0-6.776,2.719-7.729,4.52l-0.111-0.08l0.056-3.881h-4.592L63.869,230.567 z"></path> <polygon fill-rule="evenodd" points="82.443,230.567 86.811,230.567 86.979,220.328 101.091,231.447 104.619,229.406 92.523,219.807 104.283,211.728 101.315,209.647 86.979,220.248 87.203,200.567 82.779,200.567"></polygon> <path fill-rule="evenodd" d="M132.003,220.168v-0.641c0-5.36-3.248-9.439-10.752-9.439s-12.769,5.039-12.769,10.52 c0,6.52,4.48,10.52,12.208,10.52c4.145,0,7.784-1.52,10.641-3.56l-2.185-1.72c-2.408,1.561-4.76,2.879-7.951,2.879 c-5.713,0-7.896-3.72-7.896-7.879v-0.68H132.003z M113.691,218.008c0.729-2.721,3.417-5.521,7.616-5.521 c4.537,0,6.217,2.681,6.217,5.521H113.691z"></path> <path fill-rule="evenodd" d="M135.476,210.646v2.4h4.76l-0.112,7.281c-0.055,2.76-0.055,4.399-0.055,5.719 c0,3.16,1.68,5.08,5.991,5.08c2.464,0,5.151-0.84,7-1.721l-1.456-2.078c-1.063,0.479-2.968,1.159-4.48,1.159 c-1.903,0-2.575-0.92-2.575-2.56c0-1,0-2.48,0.056-4.721l0.112-8.16h7.672v-2.4h-7.616l0.112-7.359h-4.479l-0.112,7.359H135.476z"></path> <path fill-rule="evenodd" d="M154.107,210.646v2.4h4.76l-0.112,7.281c-0.056,2.76-0.056,4.399-0.056,5.719 c0,3.16,1.68,5.08,5.991,5.08c2.465,0,5.152-0.84,7-1.721l-1.455-2.078c-1.064,0.479-2.968,1.159-4.48,1.159 c-1.904,0-2.575-0.92-2.575-2.56c0-1,0-2.48,0.056-4.721l0.111-8.16h7.673v-2.4h-7.616l0.111-7.359h-4.479l-0.112,7.359H154.107z"></path> <path fill-rule="evenodd" d="M188.909,229.167c2.521,1.161,5.488,1.96,8.736,1.96c4.592,0,9.24-2.24,9.24-6.039 c0-6.761-12.936-5-12.936-9.281c0-2.359,2.408-3.319,5.656-3.319c1.96,0,3.695,0.681,5.32,1.319l2.071-2.039 c-2.071-1-4.983-1.68-8.12-1.68c-5.096,0-9.407,2.199-9.407,5.959c0,6.68,12.936,4.521,12.936,9.48 c0,2.24-2.969,3.199-5.432,3.199c-2.408,0-4.592-0.92-6.16-1.68L188.909,229.167z"></path> <path fill-rule="evenodd" d="M234.601,220.168v-0.641c0-5.36-3.25-9.439-10.754-9.439s-12.768,5.039-12.768,10.52 c0,6.52,4.479,10.52,12.208,10.52c4.144,0,7.784-1.52,10.641-3.56l-2.186-1.72c-2.407,1.561-4.759,2.879-7.95,2.879 c-5.713,0-7.896-3.72-7.896-7.879v-0.68H234.601z M216.287,218.008c0.729-2.721,3.417-5.521,7.615-5.521 c4.537,0,6.218,2.681,6.218,5.521H216.287z"></path> <path fill-rule="evenodd" d="M240.647,230.567h4.479l0.225-19.921h-4.479L240.647,230.567z M240.647,206.486h4.816v-3.6h-4.816 V206.486z"></path> <path fill-rule="evenodd" d="M250.492,210.646v2.4h4.759l-0.112,7.281c-0.055,2.76-0.055,4.399-0.055,5.719 c0,3.16,1.68,5.08,5.991,5.08c2.466,0,5.151-0.84,7-1.721l-1.455-2.078c-1.064,0.479-2.969,1.159-4.481,1.159 c-1.902,0-2.575-0.92-2.575-2.56c0-1,0-2.48,0.057-4.721l0.112-8.16h7.672v-2.4h-7.616l0.112-7.359h-4.479l-0.112,7.359H250.492z"></path> <polygon fill-rule="evenodd" points="290.222,213.047 299.463,207.087 299.126,230.567 303.605,230.567 303.942,203.287 300.471,203.287 287.703,210.887"></polygon> <path fill-rule="evenodd" d="M320.898,211.447c0-3.08,3.303-5.92,8.177-5.92c5.767,0,8.622,3.68,9.238,6.119 c-1.792,3.081-4.983,5.32-9.8,5.32C323.979,216.967,320.898,214.607,320.898,211.447z M316.81,230.967h3.361 c13.942,0,23.128-6.6,23.128-16.72c0-6.399-5.377-11.36-14.785-11.36c-6.384,0-12.432,3.881-12.432,8.521 c0,5.079,4.76,8.44,11.816,8.44c4.424,0,8.735-1.76,10.473-4.52h0.111c-0.617,7.799-7.393,12.999-19.152,12.999h-1.904 L316.81,230.967z"></path> <path fill-rule="evenodd" d="M352.358,216.928c0-6.641,2.521-11.4,8.904-11.4c6.942,0,8.903,5.48,8.903,11.4 s-1.961,11.399-8.903,11.399C354.879,228.327,352.358,223.566,352.358,216.928z M347.205,216.928 c0,7.64,4.201,14.039,14.058,14.039c8.175,0,14.056-5.6,14.056-14.039c0-7.641-4.201-14.041-14.056-14.041 C353.086,202.887,347.205,208.487,347.205,216.928z"></path> <path fill-rule="evenodd" d="M395.858,220.887h-13.833l14.168-14.479h0.112L395.858,220.887z M395.689,230.567h4.481l0.224-7.04 h5.656v-2.641h-5.601l0.224-17.6h-4.872l-18.312,17.881l1.009,2.359h17.416L395.689,230.567z"></path> </g> </g> </svg> 