<?xml version="1.0" encoding="UTF-8"?> <svg xmlns="http://www.w3.org/2000/svg" viewBox="0 0 132.23 30.29"> <defs> <style>.cls-1{fill:#00326e;}.cls-2{fill:#fff;}</style> </defs> <g id="Ebene_2" data-name="Ebene 2"> <g id="Ebene_1-2" data-name="Ebene 1"> <polygon class="cls-1" points="50.02 18.89 56.33 18.89 49.65 7.74 56.09 0 49.86 0 44.06 7.42 44.06 0 38.5 0 38.5 18.89 44.06 18.89 44.06 13.84 45.9 11.63 50.02 18.89"></polygon> <polygon class="cls-1" points="58.19 18.89 70.85 18.89 70.85 14.42 63.75 14.42 63.75 0 58.19 0 58.19 18.89"></polygon> <path class="cls-1" d="M72.32,0V12.29c0,4.36,3.19,7.05,8.41,7.05s8.41-2.69,8.41-7V0H83.58V12.08a2.85,2.85,0,1,1-5.7,0V0Z"></path> <path class="cls-1" d="M95.36,18.89h6.09l2-11.76a13.48,13.48,0,0,0,.13-1.65h.11a15.81,15.81,0,0,0,.13,1.65l2,11.76H112L116.45,0h-5.61l-1.92,10.62a15.24,15.24,0,0,0-.19,1.86h-.08a12.18,12.18,0,0,0-.21-1.86L106.44,0h-5.59l-2,10.62a11,11,0,0,0-.21,1.86h-.08a15.24,15.24,0,0,0-.19-1.86L96.45,0H90.84l4.52,18.89Z"></path> <polygon class="cls-1" points="124.01 14.9 124.01 11.2 131.59 11.2 131.59 7.29 124.01 7.29 124.01 3.99 132.04 3.99 132.04 0 118.45 0 118.45 18.89 132.23 18.89 132.23 14.9 124.01 14.9"></polygon> <polygon class="cls-1" points="0 30.15 30.15 30.15 30.15 0 0 0 0 30.15"></polygon> <path class="cls-2" d="M2.31,7s.21.29,1,.17c.25,0,.48-.08.55.19.15.67.34,1.35.34,1.35l.32,1.68S4.68,11.5,4.8,12a14.78,14.78,0,0,0,.42,1.43c.17.67.11.71.86.55.44-.1.48-.31.38-1l-.19-1.24q-.12-.39-.21-.78a4.34,4.34,0,0,1,.8-.15,8.65,8.65,0,0,1,1.22-.29l1.55-.13,1.24.11a5,5,0,0,0,1,0c0,.21.15,1.26.15,1.26s.11,1.16.15,1.43a11.61,11.61,0,0,1,0,1.56,4.2,4.2,0,0,1-.5,1.68c-.34.34-1,.9-1,.9s-1,1-1.34,1.49a9.58,9.58,0,0,0-.82,1.51,8.36,8.36,0,0,0-.88,2.21c-.08.55-.4,1.45-.5,2.21,0,.4-.1,1,.17,1.18,1.32.88,1.62-.8,1.81-1.76a12.77,12.77,0,0,1,.92-2.58,16.51,16.51,0,0,1,1.16-1.85s.8-.9,1.26-1.3.55-.69.93-.78.53-.17.76-.23a1.92,1.92,0,0,1,1.72.29l1.53,1a14.18,14.18,0,0,1,1.2,1.37A17.72,17.72,0,0,1,19.67,22c.19.34.71,1.79.71,1.79s.31,1.43.38,1.79.53,1.26.76,1.3a1.22,1.22,0,0,0,.8,0c.65-.19.65-1,.46-1.91a8.53,8.53,0,0,0-.38-1.07l-.32-.9c-.31-.86-1-2.61-1-2.61a26.23,26.23,0,0,0-1.79-2.44,9.82,9.82,0,0,0-1-1,5.7,5.7,0,0,1-1.6-2,6.68,6.68,0,0,1-.27-1.09s-.06-.48-.08-.74,0-.61,0-.9c0-.55-.06-1-.08-1.41.71-.1.4-.11,1.76-.27a4.94,4.94,0,0,1,1.51-.11c.36.06.95.21.95.21a6.46,6.46,0,0,1,.92.53,2,2,0,0,1,.67.92,5.77,5.77,0,0,1,.57,2.23c-.25.31-.76,1-.76,1s-.42.34-.67.57-.42.34-.27.5.78.59.92.51a4.65,4.65,0,0,0,.88-.65l.84-.95c.48-.55.82-1.07,1.34-1.68C25.26,13.2,26,12.3,26,12.3s.63-.8.86-1.18a7.52,7.52,0,0,0,.61-1.2c.19-.53.4-1,.55-1.55.31-1.14-.11-1.62-.72-1.64a3.33,3.33,0,0,0-1,.4,5.69,5.69,0,0,0-.9,1.07c-.08.11-.21.44-.29.55-.44.59-.73.9-.53,1,.38.23.82.25,1.16.46.1.06-.23.38-.46.8a9.79,9.79,0,0,1-1.35,1.91,5.67,5.67,0,0,0-.63-1.87c-.19-.29-.4-.55-.61-.84a6.3,6.3,0,0,0-.94-.92,5.87,5.87,0,0,0-2.39-.59,17.28,17.28,0,0,0-1.89-.19c-.32,0-.65,0-1,0a4.69,4.69,0,0,1-.92.06c-.17,0-.36-.11-.36-.32a1.4,1.4,0,0,1,.44-1.15,2,2,0,0,0,.63-1.66,3,3,0,0,0-.69-1.56,2.15,2.15,0,0,0-1.77-.71,1.42,1.42,0,0,0-1,.29,4.77,4.77,0,0,0-.63.48c-.52.57-.76,2.44-.13,3a3,3,0,0,1,.4.4,1.69,1.69,0,0,1,.25.69c0,.32.06.61-.38.69l-1.89.06S8.34,9,7.73,9.06c-.38,0-1.45.25-1.89.21a11.38,11.38,0,0,1-.42-2c0-.15,0-.48.32-.53s.48-.06.76-.13.44-.15.67-.19L7.11,5.9S7,5.44,7,5.31c-.08-.34-.08-.63-.27-.71s-.63.11-1.32.21S3.5,4.87,2.76,5,2,5.32,2,5.61a4.27,4.27,0,0,0,.15.71L2.31,7Z"></path> <path class="cls-1" d="M44,28.22c0,1.06-.75,1.9-2.29,1.9H38.52V23.37h3c1.54,0,2.24.75,2.24,1.74a1.51,1.51,0,0,1-1.22,1.49A1.54,1.54,0,0,1,44,28.22Zm-3.85-3.71v1.64h1c.72,0,1-.37,1-.83s-.3-.82-1-.82h-1Zm2.17,3.58c0-.52-.35-.88-1-.88H40.12V29h1.11C42,29,42.3,28.6,42.3,28.09Z"></path> <path class="cls-1" d="M48.9,28.55H46.41l-.51,1.58H44.29l2.45-6.75h1.83L51,30.13H49.4Zm-.37-1.13-.62-1.88c-.09-.29-.18-.61-.25-.95h0a6.26,6.26,0,0,1-.25.95l-.62,1.88Z"></path> <path class="cls-1" d="M53.06,23.38v4.33a1.25,1.25,0,1,0,2.5,0V23.38h1.61v4.39c0,1.54-1.07,2.52-2.86,2.52s-2.86-1-2.86-2.52V23.38Z"></path> <path class="cls-1" d="M60.07,24.59v1.56h2.84v1.2H60.07v2.78H58.46V23.38h4.62V24.6h-3Z"></path> <path class="cls-1" d="M67.51,28.55H65l-.51,1.58H62.9l2.45-6.75h1.83l2.45,6.75H68Zm-.37-1.13-.62-1.88c-.09-.29-.18-.61-.25-.95h0a6.26,6.26,0,0,1-.25.95l-.62,1.88Z"></path> <path class="cls-1" d="M69.72,26.76c0-2.13,1.25-3.55,3.31-3.55a2.72,2.72,0,0,1,3,2.42l-1.63.29A1.38,1.38,0,0,0,73,24.5c-1,0-1.63.87-1.63,2.24S72,29,73,29c.75,0,1.25-.51,1.39-1.39l1.63.35a2.87,2.87,0,0,1-3,2.34C70.87,30.29,69.72,28.89,69.72,26.76Z"></path> <path class="cls-1" d="M82.78,30.13H81.17v-2.8h-2.6v2.8H77V23.38h1.61v2.71h2.6V23.38h1.61Z"></path> <path class="cls-1" d="M90,30.13H88.38v-2.8h-2.6v2.8H84.17V23.38h1.61v2.71h2.6V23.38H90Z"></path> <path class="cls-1" d="M95.44,28.55H93l-.51,1.58H90.83l2.45-6.75h1.83l2.45,6.75H95.94Zm-.37-1.13-.62-1.88c-.09-.29-.18-.61-.25-.95h0a6.26,6.26,0,0,1-.25.95l-.62,1.88Z"></path> <path class="cls-1" d="M98.39,23.38h1.78l2.17,3.85a8.37,8.37,0,0,1,.41.88h0c0-.27,0-.54,0-.87V23.38h1.47v6.75h-1.71l-2.24-3.89a6.13,6.13,0,0,1-.4-.83h0c0,.28,0,.56,0,.89v3.82H98.4V23.38Z"></path> <path class="cls-1" d="M105.63,23.38h2.69a3.15,3.15,0,0,1,3.34,3.34,3.19,3.19,0,0,1-3.36,3.41h-2.67Zm2.6,5.57c1.14,0,1.77-1,1.77-2.23s-.59-2.16-1.75-2.16h-1V29Z"></path> <path class="cls-1" d="M117.31,28.94v1.19h-4.69V23.38h4.62v1.19h-3v1.52h2.85v1.18h-2.85v1.67Z"></path> <path class="cls-1" d="M118.48,23.38h1.61v5.45h2.74v1.3h-4.34V23.38Z"></path> </g> </g> </svg> 