<?xml version="1.0" encoding="UTF-8"?> <svg xmlns:xlink="http://www.w3.org/1999/xlink" xmlns="http://www.w3.org/2000/svg" id="logo-lsb" viewBox="0 0 106 120" fill="#f72440" width="200" height="232"> <g id="LSB_Logo"> <g id="Group"> <path id="Vector" d="M43.9008 9.71662H40.2493L40.8424 7.12121H43.7615L44.058 5.84507H41.1282L41.6999 3.31436H45.3407L45.6409 2.04901H40.5458L38.4985 10.982H43.6043L43.9008 9.71662Z" fill="#f72440"></path> <path id="Vector_2" d="M47.9276 6.93786C48.5458 7.18949 48.9352 7.3872 49.0996 7.53099C49.2639 7.67478 49.3461 7.89766 49.3461 8.20321C49.3461 9.3068 48.7458 9.86039 47.5453 9.86039C46.9236 9.86039 46.1161 9.77771 45.1229 9.61235L44.8906 10.6692L45.2658 10.7878C45.5087 10.8669 45.8482 10.9424 46.2912 11.0143C46.7307 11.0898 47.1452 11.1257 47.5346 11.1257C48.5457 11.1257 49.3461 10.8561 49.9392 10.3169C50.5323 9.77771 50.8253 9.01562 50.8253 8.03426C50.8253 7.4591 50.7038 7.02413 50.4573 6.72936C50.2107 6.43459 49.7677 6.1542 49.121 5.89538C48.4779 5.63296 48.0706 5.43166 47.9026 5.28787C47.7347 5.14408 47.6489 4.9248 47.6489 4.63003C47.6489 4.15912 47.7919 3.79605 48.0777 3.53363C48.3635 3.27481 48.7816 3.1418 49.3354 3.1418C49.8892 3.1418 50.6324 3.22089 51.5649 3.37546L51.8257 2.33298L51.4613 2.21435C51.229 2.14605 50.8967 2.07416 50.4716 2.00586C50.0428 1.93756 49.6355 1.90161 49.246 1.90161C48.3135 1.90161 47.5703 2.16762 47.0165 2.69605C46.4627 3.22807 46.1876 3.92186 46.1876 4.78101C46.1876 5.34538 46.3234 5.78394 46.5949 6.09309C46.8629 6.40584 47.3095 6.68622 47.9276 6.93786Z" fill="#f72440#f72440"></path> <path id="Vector_3" d="M25.175 3.48332H25.368L26.3005 10.982H28.5693L30.6166 2.04901H29.2196L27.5475 9.4542H27.351L26.497 2.04901H24.1246L22.063 10.982H23.4386L25.175 3.48332Z" fill="#f72440"></path> <path id="Vector_4" d="M33.6645 10.982C34.4005 10.982 35.0615 10.7915 35.6475 10.414C36.2335 10.0366 36.7015 9.53689 37.0481 8.92218C37.7555 7.67121 38.1093 6.27645 38.1093 4.73789C38.1093 2.94771 37.2017 2.05261 35.3867 2.05261H32.5748L30.5132 10.982H33.6645ZM33.7145 3.31437H35.1008C35.6189 3.31437 36.0012 3.42581 36.2478 3.64509C36.4943 3.86796 36.6158 4.22744 36.6158 4.72711C36.6158 5.22678 36.5586 5.75161 36.4478 6.29801C36.3371 6.84442 36.1727 7.38003 35.9619 7.90127C35.7511 8.42251 35.4546 8.85388 35.0758 9.19898C34.6971 9.54408 34.2719 9.71303 33.8039 9.71303H32.2639L33.7145 3.31437Z" fill="#f72440"></path> <path id="Vector_5" d="M13.9632 9.71662H10.8655L12.6162 2.04901H11.1763L9.11475 10.982H13.6774L13.9632 9.71662Z" fill="#f72440"></path> <path id="Vector_6" d="M16.4503 9.11629H19.3551V10.982H20.795L20.87 2.04901H18.2939L14.1064 10.982H15.5571L16.4503 9.11629ZM19.1336 3.31436H19.4587L19.3944 7.84016H17.0077L19.1336 3.31436Z" fill="#f72440"></path> <path id="Vector_7" d="M61.1725 54.7876H59.7219L58.3856 60.5787C58.282 61.1 58.2319 61.5421 58.2319 61.9088C58.2319 63.2137 59.1538 63.8643 60.9938 63.8643C61.9085 63.8643 62.641 63.6235 63.1912 63.1418C63.7414 62.6601 64.1344 61.8872 64.3774 60.8268L65.7637 54.7876H64.3131L62.9268 60.8268C62.7803 61.4523 62.5695 61.9052 62.2979 62.182C62.0264 62.4588 61.5905 62.599 60.9938 62.599C60.1113 62.599 59.6718 62.315 59.6718 61.7506C59.6718 61.4559 59.7111 61.1323 59.7897 60.7872L61.1725 54.7876Z" fill="#f72440"></path> <path id="Vector_8" d="M80.5631 61.6608C81.2705 60.4098 81.6278 59.015 81.6278 57.4765C81.6278 55.6863 80.7203 54.7912 78.9052 54.7912H76.0933L74.0317 63.7242H77.1831C77.9191 63.7242 78.5801 63.5336 79.1661 63.1562C79.752 62.7751 80.2165 62.2755 80.5631 61.6608ZM77.3224 62.4552H75.7789L77.2295 56.053H78.6158C79.1339 56.053 79.5162 56.1644 79.7627 56.3837C80.0093 56.6066 80.1308 56.966 80.1308 57.4657C80.1308 57.9654 80.0736 58.4902 79.9628 59.0366C79.8521 59.583 79.6877 60.1186 79.4769 60.6399C79.2661 61.1611 78.9696 61.5925 78.5908 61.9376C78.2121 62.2827 77.7905 62.4552 77.3224 62.4552Z" fill="#f72440"></path> <path id="Vector_9" d="M57.4532 56.6389C57.4532 55.4059 56.7065 54.7876 55.2094 54.7876H52.2153L50.168 63.7206H53.3943C54.5091 63.7206 55.363 63.4366 55.9526 62.865C56.5457 62.297 56.8387 61.5601 56.8387 60.6542C56.8387 60.2804 56.7708 59.9748 56.6314 59.734C56.4921 59.4931 56.2455 59.2882 55.8918 59.1157C56.9351 58.5513 57.4532 57.7245 57.4532 56.6389ZM54.9057 61.9843C54.6091 62.3042 54.1983 62.466 53.6802 62.466H51.9044L52.5154 59.8059H54.2376C54.9807 59.8059 55.3523 60.1006 55.3523 60.6938C55.3523 61.233 55.2058 61.6644 54.9057 61.9843ZM55.5274 58.1127C55.2308 58.4255 54.8557 58.5837 54.4055 58.5837H52.7869L53.3836 56.0422H54.9772C55.3237 56.0422 55.5738 56.1105 55.7346 56.2507C55.8954 56.3909 55.974 56.6101 55.974 56.9157C55.9776 57.401 55.8275 57.8 55.5274 58.1127Z" fill="#f72440"></path> <path id="Vector_10" d="M66.9536 63.7206L68.69 56.2219H68.8865L69.8191 63.7206H72.0879L74.1352 54.7876H72.7346L71.0624 62.1928H70.8695L70.012 54.7876H67.6396L65.5815 63.7206H66.9536Z" fill="#f72440"></path> <path id="Vector_11" d="M30.1808 31.055H17.3575C16.4142 31.055 15.9426 31.5295 15.7747 32.3096L14.6313 37.1841C14.6313 37.1841 30.1808 37.1841 32.0316 37.1841C35.8547 37.1841 37.6626 34.2148 38.4379 32.0508C38.8738 30.8322 39.2311 29.3116 39.2311 28.093C39.2311 27.7874 39.2704 27.3812 38.9667 26.939C38.663 26.5005 36.8122 23.6391 36.3048 23.0315C35.9333 22.557 35.3294 22.3198 34.5898 22.3198H25.9397C25.3323 22.3198 24.9036 21.6224 25.0322 20.8316C25.1894 19.879 25.6039 19.6129 26.6472 19.6129H38.8988C39.8063 19.6129 40.1779 19.1384 40.3458 18.3943L41.4213 13.4839C41.4213 13.4839 28.2014 13.4839 26.0469 13.4839C22.2882 13.4839 19.3405 16.295 18.6473 19.0558C18.3365 20.2923 17.9971 21.6188 17.797 22.9561C17.7327 23.391 17.9292 24.0165 18.2007 24.3221C18.976 25.2351 20.0194 26.5221 20.8911 27.5394C21.2627 27.9815 21.8344 28.3518 22.7419 28.3518H30.7203C31.3277 28.3518 31.7958 28.9629 31.6636 29.7394C31.4957 30.6165 31.0919 31.055 30.1808 31.055Z" fill="#f72440"></path> <path id="Vector_12" d="M45.548 14.7996L40.3994 37.1841H46.0554C46.9308 37.1841 47.8061 36.8462 48.1098 35.5233L51.5077 21.1659C51.7435 20.1845 52.1473 19.6093 53.1906 19.6093H58.8894C59.4968 19.6093 60.2328 20.2672 60.1006 20.9286C59.9256 21.8129 59.7183 22.859 59.4611 23.7828C59.2253 24.6348 58.6786 25.3106 57.5674 25.3106H52.7189L51.3398 31.339H58.0391C61.8407 31.339 64.4596 29.2936 65.8066 26.7521C66.8178 24.7894 67.318 22.1041 67.5645 20.0012C67.6396 19.3613 67.7217 18.6783 67.4502 18.308C66.9107 17.528 65.0063 14.9362 64.5704 14.3934C64.0666 13.7822 63.3234 13.4803 62.348 13.4803H47.6739C46.3234 13.4803 45.816 13.6852 45.548 14.7996Z" fill="#f72440"></path> <path id="Vector_13" d="M73.846 37.1841C74.7892 37.1841 78.6266 37.1841 78.6266 37.1841L80.0415 31.0874C80.0415 31.0874 78.0906 31.0874 77.4153 31.0874C76.64 31.0874 76.0683 30.5805 76.0683 29.8688C76.0683 29.2577 76.1005 29.7322 77.7834 22.1832C78.0871 20.8639 79.6341 19.541 81.0133 19.541C81.6529 19.541 82.664 19.541 82.664 19.541L84.0432 13.4803C84.0432 13.4803 83.2035 13.4803 80.4095 13.4803C76.1005 13.4803 71.5236 17.6107 70.7161 20.7956C70.3445 22.2874 69.2369 27.1619 68.7295 29.6998C68.6616 30.0054 68.6616 30.106 68.6616 30.3756C68.6616 32.5433 70.9162 35.0488 71.9273 36.3357C72.4311 36.9792 72.7669 37.1841 73.846 37.1841Z" fill="#f72440"></path> <path id="Vector_14" d="M10.201 61.9771L13.5667 47.519C13.7025 46.9762 13.9383 46.1638 15.2174 46.1638H21.2771C21.9167 46.1638 22.5241 46.7389 22.5241 47.652C22.5241 48.7017 22.1882 49.4458 21.7488 50.1252C21.345 50.7363 20.2338 51.5128 19.3585 51.5128H14.7779L13.3631 57.5735C13.3631 57.5735 14.7779 57.5735 16.3929 57.5735L19.6229 63.8032H27.8013L24.0319 56.6245C26.1864 55.6072 27.4976 54.0183 28.3409 52.4258C29.3163 50.5961 29.8558 47.3069 29.8558 46.2572C29.8558 45.7863 29.6664 45.2543 29.3413 44.7798C29.0376 44.3412 27.1618 41.7566 26.5901 41.0808C26.0863 40.4373 25.4789 40.0994 24.5714 40.0994H9.66149C8.31449 40.0994 7.77497 40.5056 7.57489 41.4187L2.42627 63.8032H8.1144C8.88973 63.8032 9.8973 63.2964 10.201 61.9771Z" fill="#f72440"></path> <path id="Vector_15" d="M36.4584 63.8032H42.0786C43.2898 63.8032 43.9294 63.2281 44.0973 62.448L47.5988 47.4794C47.7667 46.6994 48.4063 46.1602 49.0816 46.1602H54.3981C55.6451 46.1602 56.081 45.8906 56.349 44.7366L57.3923 40.0958H35.2793C34.0681 40.0958 33.3285 40.2324 33.0248 41.4834L31.9136 46.1566H40.4636L36.4584 63.8032Z" fill="#f72440"></path> <path id="Vector_16" d="M31.7423 86.1266C32.4819 84.7391 32.8428 83.2976 32.8428 81.8417C32.8428 81.4031 32.8535 80.9682 32.4891 80.5009C32.1496 80.0659 30.2631 77.697 30.2631 77.697C30.2631 77.697 32.1568 76.7947 33.3037 75.3712C34.1433 74.3215 34.7114 72.7901 34.7114 71.7081C34.7114 71.5032 34.6435 71.1653 34.4077 70.8633C34.0361 70.3888 31.9102 67.912 31.2385 67.2003C31.0349 66.9954 30.699 66.6934 29.8236 66.6934H13.2309C12.2197 66.6934 11.816 67.3045 11.6481 67.9803L6.46729 90.3936H13.9383C13.9383 90.3936 17.7078 73.4947 17.8435 73.1244C18.0115 72.7182 18.4831 72.4127 18.9547 72.4127H25.3503C26.022 72.4127 26.2578 73.0885 26.2578 73.5306C26.2578 74.4437 25.7541 76.0038 24.675 76.0038C24.2391 76.0038 19.2906 76.0038 19.2906 76.0038L18.1794 80.7777C18.1794 80.7777 23.7997 80.7777 24.3392 80.7777C24.9787 80.7777 25.4182 81.3205 25.4182 81.759C25.4182 82.2659 25.2503 83.1826 25.0145 83.6571C24.8787 84.0633 24.1069 84.6744 23.3995 84.6744C22.6242 84.6744 17.2397 84.6744 17.2397 84.6744L15.9284 90.3972H24.9501C28.1765 90.3936 30.6669 88.1577 31.7423 86.1266Z" fill="#f72440"></path> <path id="Vector_17" d="M47.1633 72.8189H59.247C60.0867 72.8189 60.594 72.3444 60.7262 71.7009L61.8696 66.6898H41.7753C40.5641 66.6898 40.1246 67.265 39.9245 68.1816L34.876 90.3936C34.876 90.3936 53.759 90.3936 55.0024 90.3936C56.3137 90.3936 56.8532 89.9874 57.089 88.9701L58.168 84.2646H43.6619L44.2014 81.9603C44.3371 81.3169 44.673 81.1156 45.2125 81.1156C45.752 81.1156 54.838 81.1156 54.838 81.1156L55.9135 76.0685H45.5126L46.1522 73.4947C46.2558 73.1244 46.6238 72.8189 47.1633 72.8189Z" fill="#f72440"></path> <path id="Vector_18" d="M88.6843 20.7956C88.6843 21.4067 88.6521 20.9322 86.9693 28.4812C86.6656 29.8005 85.1185 31.1233 83.7393 31.1233C83.0998 31.1233 82.0886 31.1233 82.0886 31.1233L80.7095 37.1841C80.7095 37.1841 81.5491 37.1841 84.3432 37.1841C88.6521 37.1841 93.2291 33.0537 94.0366 29.8688C94.4082 28.3769 95.5158 23.5025 96.0231 20.9646C96.091 20.659 96.091 20.5584 96.091 20.2887C96.091 18.1211 93.8365 15.6156 92.8253 14.3286C92.3215 13.6852 91.9857 13.4803 90.9067 13.4803C89.9634 13.4803 86.1261 13.4803 86.1261 13.4803L84.7112 19.577C84.7112 19.577 86.662 19.577 87.3373 19.577C88.1126 19.577 88.6843 20.0838 88.6843 20.7956Z" fill="#f72440"></path> <path id="Vector_19" d="M86.812 79.0162C87.7875 77.1865 88.327 73.8973 88.327 72.8476C88.327 72.3767 88.1376 71.8447 87.8125 71.3702C87.5088 70.9316 85.633 68.347 85.0613 67.6712C84.5575 67.0277 83.9501 66.6898 83.0426 66.6898H68.1327C66.7857 66.6898 66.2497 67.096 66.0461 68.0091L60.8975 90.3936H66.5856C67.3609 90.3936 68.3685 89.8867 68.6722 88.5639L72.0379 74.1058C72.1737 73.563 72.4095 72.7506 73.6886 72.7506H79.7483C80.3879 72.7506 80.9953 73.3257 80.9953 74.2388C80.9953 75.2885 80.6594 76.0326 80.22 76.712C79.8162 77.3231 78.705 78.0996 77.8297 78.0996H73.2527L71.8378 84.1603C71.8378 84.1603 73.2527 84.1603 74.8677 84.1603L78.0976 90.39H86.2761L82.5066 83.2113C84.6576 82.1976 85.9688 80.6087 86.812 79.0162Z" fill="#f72440"></path> <path id="Vector_20" d="M42.7183 93.3413C42.7183 93.3413 38.713 93.3413 36.9301 93.3413C35.483 93.3413 35.1114 93.8158 34.8435 94.9338L29.8628 117.045H47.8704C49.0817 117.045 49.4533 116.571 49.6533 115.726L50.9003 110.614H38.8166L42.7183 93.3413Z" fill="#f72440"></path> <path id="Vector_21" d="M74.0031 93.3413C74.0031 93.3413 59.8328 93.3413 58.6215 93.3413C57.3103 93.3413 56.9708 93.7475 56.735 94.7648L55.7239 99.0641H60.5045L57.8819 110.068C57.714 110.744 57.4425 111.254 56.6028 111.254H54.5162C53.573 111.254 52.9334 111.66 52.6654 112.778L51.6543 117.045C51.6543 117.045 65.8246 117.045 66.9679 117.045C68.147 117.045 68.6508 116.538 68.8545 115.622L69.8299 111.254H65.1529L67.779 100.078C67.9148 99.4668 68.1506 99.0606 68.9223 99.0606H71.2769C72.1166 99.0606 72.6918 98.8233 72.9276 97.806L74.0031 93.3413Z" fill="#f72440"></path> <path id="Vector_22" d="M97.9845 93.3413C97.077 93.3413 96.7375 93.9524 96.5696 94.6965L93.2039 108.917H92.2285L88.5948 93.3413H79.541C78.7013 93.3413 77.9939 93.8158 77.7581 94.8295L72.6416 117.045H77.9581C78.9014 117.045 79.641 116.502 79.8447 115.658L83.1425 101.469H84.2215L87.8231 117.045H96.7768C97.788 117.045 98.4276 116.333 98.5955 115.622L103.712 93.3413H97.9845Z" fill="#f72440"></path> </g> </g> </svg> 