<?xml version="1.0" encoding="UTF-8"?> <svg xmlns="http://www.w3.org/2000/svg" viewBox="0 0 223.17 30.76"> <defs> <style>.cls-1{fill:#e73331;}.cls-2{fill:#fff;}</style> </defs> <g id="Ebene_2" data-name="Ebene 2"> <g id="Ebene_1-2" data-name="Ebene 1"> <path d="M47.54,19.34h5.35L49.72,11.2a5,5,0,0,0,2.85-4.95c0-3.67-2.16-5.8-6.68-5.8h-7.4V19.34h5V12.16h1.65l2.37,7.18ZM43.52,9V3.8h1.54c1.57,0,2.26.8,2.26,2.45S46.6,9,45.06,9H43.52Z"></path> <path d="M65.47,19.34h5L65.31.45H59.06L53.87,19.34h5l.85-3.86h4.9l.85,3.86ZM60.5,12l1.06-4.87a29,29,0,0,0,.59-2.95h.05c.16,1.12.37,2,.59,3L63.85,12Z"></path> <path d="M83.17,19.34h5L83,.45H76.76L71.57,19.34h5l.85-3.86h4.9l.85,3.86Zm-5-7.32,1.06-4.87a29,29,0,0,0,.59-2.95h0c.16,1.12.37,2,.59,3L81.54,12Z"></path> <path d="M100.51,9.39a3.84,3.84,0,0,0,3-3.88c0-3.11-2.08-5.06-5.91-5.06H89.87V19.34h7.95c3.86,0,6-2.1,6-5.37,0-2.48-1.19-4.08-3.35-4.58ZM96.34,3.8a1.82,1.82,0,0,1,2,2.05c0,1.57-.72,2.29-2,2.29H94.9V3.8ZM96.52,16H94.9V11.25h1.62c1.33,0,2.1.77,2.1,2.42,0,1.49-.74,2.32-2.1,2.32Z"></path> <polygon points="120.68 19.34 126.21 19.34 121.16 8.06 126 0.45 120.63 0.45 116.16 8.38 116.16 0.45 111.13 0.45 111.13 19.34 116.16 19.34 116.16 14.1 117.67 11.68 120.68 19.34"></polygon> <path d="M138.66,19.34h5L138.5.45h-6.25l-5.19,18.89h5l.85-3.86h4.9l.85,3.86Zm-5-7.32,1.06-4.87a29,29,0,0,0,.59-2.95h0c.16,1.12.37,2,.59,3L137,12Z"></path> <path d="M154.42,19.34h5.35L156.6,11.2a5,5,0,0,0,2.85-4.95c0-3.67-2.16-5.8-6.68-5.8h-7.4V19.34h5V12.16h1.65l2.37,7.18ZM150.4,9V3.8h1.54c1.57,0,2.26.8,2.26,2.45S153.48,9,151.94,9H150.4Z"></path> <path d="M168.28,19.79c4.15,0,7-2.47,7.32-7.16l-5-1.12c-.16,3.35-1,4.31-2.34,4.31s-2.61-1.12-2.61-5.93,1.28-6,2.61-6,2.18.67,2.29,4.23l5-1c-.08-4.82-3-7.18-7.26-7.18-4.5,0-7.74,2.29-7.74,9.9,0,7.84,2.94,9.89,7.73,9.89Z"></path> <polygon points="192.14 0.45 187.11 0.45 187.11 7.87 182.7 7.87 182.7 0.45 177.67 0.45 177.67 19.34 182.7 19.34 182.7 11.68 187.11 11.68 187.11 19.34 192.14 19.34 192.14 0.45"></polygon> <polygon points="199.99 15.67 199.99 11.46 206.03 11.46 206.03 7.84 199.99 7.84 199.99 4.12 206.43 4.12 206.43 0.45 194.96 0.45 194.96 19.34 206.62 19.34 206.62 15.67 199.99 15.67"></polygon> <path d="M217.82,19.34h5.35L220,11.2a5,5,0,0,0,2.85-4.95c0-3.67-2.16-5.8-6.68-5.8h-7.4V19.34h5V12.16h1.65l2.37,7.18ZM213.8,9V3.8h1.54c1.57,0,2.26.8,2.26,2.45S216.88,9,215.34,9H213.8Z"></path> <path d="M42.54,27.1a1.5,1.5,0,0,0,1.21-1.49c0-1-.7-1.73-2.23-1.73h-3V30.6h3.15c1.53,0,2.28-.83,2.28-1.89a1.5,1.5,0,0,0-1.38-1.61ZM41.1,25c.69,0,1,.34,1,.81s-.27.82-1,.82h-1V25h1Zm.1,4.47H40.09V27.7h1.14c.67,0,1,.35,1,.87s-.32.9-1,.9Zm8.15,1.13H51l-2.44-6.72H46.69L44.25,30.6h1.6L46.36,29h2.48l.51,1.57Zm-2.62-2.7L47.34,26a7.71,7.71,0,0,0,.25-1h0a8.21,8.21,0,0,0,.25,1l.61,1.87Zm4.64-4v4.37c0,1.53,1.06,2.51,2.85,2.51s2.85-1,2.85-2.51V23.88h-1.6v4.3a1.25,1.25,0,1,1-2.5,0v-4.3Zm9.16,6.88c1.76,0,2.74-.88,2.74-2.16s-.64-1.72-1.84-2l-1-.21c-.71-.16-1-.38-1-.81s.41-.69,1-.69a1.88,1.88,0,0,1,1.73,1l1-.88a2.84,2.84,0,0,0-2.67-1.33c-1.62,0-2.62.77-2.62,2s.68,1.76,1.85,2l.9.19c.68.14,1,.33,1,.83s-.51.77-1.15.77a2,2,0,0,1-1.83-1.15l-1.18.83a3.13,3.13,0,0,0,3,1.55Zm8.53-6.88h-5.5v1.27h2V30.6H67.1V25.15h2V23.88Zm3.3,6.88a3.18,3.18,0,0,0,3.31-3.52,3.32,3.32,0,1,0-6.62,0,3.19,3.19,0,0,0,3.31,3.52Zm0-1.25c-1,0-1.67-.86-1.67-2.27S71.31,25,72.36,25,74,25.82,74,27.24s-.62,2.27-1.67,2.27Zm8.88-4.42V23.88h-4.6V30.6h1.6V27.84h2.83V26.65H78.24V25.1h3Zm5.56,0V23.88H82.2V30.6h1.6V27.84h2.83V26.65H83.8V25.1h3Zm6.73-1.21h-1.6v2.7H89.35v-2.7h-1.6V30.6h1.6V27.81h2.58V30.6h1.6V23.88Zm5.94,6.72h1.61l-2.44-6.72H96.81L94.37,30.6H96L96.48,29H99l.51,1.57Zm-2.63-2.7L97.45,26a7.71,7.71,0,0,0,.25-1h0A8.21,8.21,0,0,0,98,26l.61,1.87Zm5.06,2.7h1.47V26.8c0-.33,0-.61,0-.89h0a5.06,5.06,0,0,0,.4.82L106,30.6h1.7V23.88h-1.47v3.84c0,.32,0,.6,0,.86h0a7.43,7.43,0,0,0-.41-.87l-2.16-3.83h-1.77V30.6Zm7.21,0h2.66a3.18,3.18,0,0,0,3.34-3.4,3.13,3.13,0,0,0-3.32-3.32h-2.68V30.6Zm1.6-1.18V25.05h1c1.15,0,1.74.93,1.74,2.15s-.62,2.22-1.76,2.22Zm7,0V27.74h2.84V26.57h-2.84V25.06h3V23.88h-4.6V30.6h4.66V29.42h-3.06Zm4.23,1.19h4.32V29.3h-2.72V23.88h-1.6V30.6Z"></path> <polygon class="cls-1" points="0 30.59 30.14 30.59 30.14 0.45 0 0.45 0 30.59"></polygon> <path class="cls-2" d="M2.3,7.48s.21.29,1,.17c.25,0,.48-.08.55.19.15.67.34,1.35.34,1.35l.32,1.68s.13,1.07.25,1.58a14.78,14.78,0,0,0,.42,1.43c.17.67.11.71.86.55.44-.1.48-.31.38-1l-.19-1.24q-.12-.39-.21-.78a4.34,4.34,0,0,1,.8-.15A8.65,8.65,0,0,1,8.07,11l1.55-.13,1.24.12a5,5,0,0,0,1,0c0,.21.15,1.26.15,1.26s.11,1.16.15,1.43a11.61,11.61,0,0,1,0,1.56,4.2,4.2,0,0,1-.5,1.68c-.34.34-1,.9-1,.9s-1,1-1.34,1.49a9.58,9.58,0,0,0-.82,1.51A8.36,8.36,0,0,0,7.5,23c-.08.55-.4,1.45-.5,2.21,0,.4-.1,1,.17,1.18,1.32.88,1.62-.8,1.81-1.76a12.77,12.77,0,0,1,.92-2.58,16.51,16.51,0,0,1,1.16-1.85s.8-.9,1.26-1.3.55-.69.94-.78.53-.17.76-.23a1.92,1.92,0,0,1,1.72.29c.51.34,1.53,1.05,1.53,1.05a14.18,14.18,0,0,1,1.2,1.37,17.72,17.72,0,0,1,1.2,1.81c.19.34.71,1.79.71,1.79s.31,1.43.38,1.79.53,1.26.76,1.3a1.22,1.22,0,0,0,.8,0c.65-.19.65-1.05.46-1.91a8.53,8.53,0,0,0-.38-1.07l-.32-.9c-.31-.86-1-2.61-1-2.61a26.23,26.23,0,0,0-1.79-2.44,9.82,9.82,0,0,0-1-1,5.7,5.7,0,0,1-1.6-1.95,6.68,6.68,0,0,1-.27-1.09s-.06-.48-.08-.74,0-.61,0-.9c0-.55-.06-1-.08-1.41.71-.1.4-.11,1.76-.27a4.94,4.94,0,0,1,1.51-.11c.36.06.95.21.95.21a6.46,6.46,0,0,1,.92.53,2,2,0,0,1,.67.92,5.77,5.77,0,0,1,.57,2.23c-.25.31-.76,1-.76,1s-.42.34-.67.57-.42.34-.27.5.78.59.92.51a4.26,4.26,0,0,0,.88-.65l.84-.95c.48-.55.82-1.07,1.34-1.68.36-.42,1.05-1.32,1.05-1.32s.63-.8.86-1.18a7.52,7.52,0,0,0,.61-1.2c.19-.53.4-1,.55-1.55.31-1.14-.11-1.62-.72-1.64a3.33,3.33,0,0,0-1,.4,5.69,5.69,0,0,0-.9,1.07c-.08.11-.21.44-.29.55-.44.59-.73.9-.53,1,.38.23.82.25,1.16.46.1.06-.23.38-.46.8a9.79,9.79,0,0,1-1.35,1.91,5.67,5.67,0,0,0-.63-1.87c-.19-.29-.4-.55-.61-.84a6.3,6.3,0,0,0-.94-.92,5.86,5.86,0,0,0-2.38-.59A17.28,17.28,0,0,0,17.42,9c-.32,0-.65,0-1,0a4.69,4.69,0,0,1-.92.06c-.17,0-.36-.11-.36-.32a1.4,1.4,0,0,1,.44-1.15,2,2,0,0,0,.63-1.66,3,3,0,0,0-.69-1.56,2.15,2.15,0,0,0-1.77-.71,1.42,1.42,0,0,0-1,.29,4.77,4.77,0,0,0-.63.48c-.52.57-.76,2.44-.13,3a3,3,0,0,1,.4.4,1.69,1.69,0,0,1,.25.69c0,.32.06.61-.38.69l-1.89.06s-2.06.27-2.67.31c-.38,0-1.45.25-1.89.21a11.38,11.38,0,0,1-.42-2c0-.15,0-.48.32-.53s.48-.06.76-.13.44-.15.67-.19l-.06-.52S7,5.89,7,5.76c-.08-.34-.08-.63-.27-.71s-.63.11-1.32.21-1.87.06-2.61.17S2,5.77,2,6.06a4.27,4.27,0,0,0,.15.71l.11.71Z"></path> </g> </g> </svg> 