<?xml version="1.0" encoding="UTF-8"?> <svg xmlns="http://www.w3.org/2000/svg" id="_Слой_2" data-name="Слой 2" viewBox="0 0 383.18 251.63"> <defs> <style> .cls-1 { fill: #241a12; } .cls-1, .cls-2 { stroke-width: 0px; } .cls-2 { fill: #f7941d; } </style> </defs> <g id="OBJECTS"> <g> <path class="cls-1" d="m114.6,128.86c0-42.52,34.47-76.99,76.99-76.99,8.92,0,17.48,1.53,25.45,4.33-8.53-3.33-17.81-5.18-27.52-5.18-41.84,0-75.77,33.92-75.77,75.77,0,9.71,1.85,18.99,5.18,27.52-2.79-7.97-4.33-16.53-4.33-25.45Z"></path> <g> <polygon class="cls-1" points="252.8 164.68 199.94 123.84 147.08 164.68 154.33 164.68 199.94 129.44 245.55 164.68 252.8 164.68"></polygon> <path class="cls-1" d="m193.08,149.39h6.23v-6.23c-3.3.3-5.92,2.93-6.23,6.23Z"></path> <path class="cls-1" d="m199.3,156.89v-6.23h-6.23c.3,3.3,2.93,5.93,6.23,6.23Z"></path> <path class="cls-1" d="m200.58,156.89c3.3-.3,5.92-2.93,6.23-6.23h-6.23v6.23Z"></path> <path class="cls-1" d="m200.58,143.16v6.23h6.23c-.3-3.3-2.93-5.92-6.23-6.23Z"></path> <path class="cls-1" d="m260.17,112.19c-4.13-19.99-16.55-36.99-33.5-47.21l-4.54,5.38-3.07-1.31,4.8-5.68c-.38-.2-.76-.39-1.14-.59l-4.86,5.75-5.43-2.32,2.65-2.57s.62.52,1.41,0c.78-.52,1.09-.89,1.09-.89l1.73-1.64c-.72-.33-1.43-.65-2.16-.95l-1.27,1.19s-.69-.49-1.63-.1c0,0,1.07-.03,1.33,1.07l-3.78,3.63-.43-.18s-.05-.59-.46-.99l2.99-2.6-.14-.4s-.08-.3.25-.63c.6-.6.83-.81.83-.81l.47-.42-.23-.26c.06-.06.15-.14.24-.21-.44-.17-.87-.34-1.31-.5,0,0-.04.04-.05.04-.21.21-.28.46-.26.71-.14.13-.33.32-.58.57-.5.5-.63,1.05-.62,1.47l-3.16,2.75c-1.14.36-.82,1.8-.82,1.8h.04c-.12.14-.23.3-.31.49-.22.52-.22,1.08-.04,1.57l-4.13-1.77c-1.03-.44-2.28-.08-2.82.91-.62,1.13-.12,2.52,1.04,3.02l.96.41v1.64l-2.09,9.56h-.94c-1.09,0-2.06.77-2.21,1.85-.17,1.23.71,2.28,1.86,2.42l.3,2.28h-7.36c-8.61,5-5.28,17.49-2.92,19.99,2.36,2.5,12.08,13.19,12.08,13.19h3.21l-1.01-2.69h3l1.28,2.69h3.47l-1.07-2.69h2.83l1.26,2.69h2.61l-1.26-2.69h2.61l1.85,2.69h4.13l-2.9-6.9,1.23-23.92-2.64-2.36h-2.99l.72-3.66s.05-.03.07-.05l13.7-11.61,18.67,19.37c1.9,1.97,3.49,4.21,4.74,6.64v13.4h-1.39v22.01l-3.44,6.14,3.71,17.42c2.04-4.18,3.68-8.57,4.89-13.15h-.86v-10.65l2.64-4.48v5.91c.3-2.38.49-4.79.55-7.23h-3.19v-15.69h-.83v-8.53l2.58,7.69Zm-54.49-23.53h-2.87l.04-2.26h3.05l-.22,2.26Zm1.22-6.56h-2.36l.22-2.22,1.46-3.85h1.09l.1,3.28-.52,2.79Zm3.97-7.95l1.64.7-1.71,2.03.07-2.73Zm2.86,6.14c-.47.55-.72,1.21-.77,1.88-.17-.04-.35-.07-.53-.07h-2.04l.32-3.18,3.01-3.56c1.06.38,2.25-.12,2.7-1.17.22-.52.22-1.08.04-1.57l2.76,1.18-5.49,6.5Z"></path> </g> </g> <path class="cls-2" d="m69.29,139.76l16.74,1.41c3.11.26,5.65,2.49,6.33,5.54l.35,1.56c2.49,11.29,6.92,21.97,13.17,31.76l.86,1.35c1.68,2.63,1.45,6-.56,8.39l-2.72,3.22c13.44-1.15,27.35-2.04,41.66-2.65-20.04-14.04-33.17-37.29-33.17-63.56,0-42.78,34.8-77.58,77.58-77.58s77.58,34.8,77.58,77.58c0,26.17-13.04,49.34-32.95,63.4,14.1.55,27.84,1.38,41.12,2.45l-2.41-2.85c-2.02-2.39-2.24-5.76-.56-8.39l.86-1.35c6.25-9.79,10.67-20.48,13.16-31.76l.35-1.57c.67-3.05,3.22-5.27,6.33-5.53l16.74-1.41c3.68-.31,6.56-3.45,6.56-7.14v-11.67c0-3.76-2.82-6.83-6.56-7.14l-16.74-1.41c-3.11-.26-5.65-2.49-6.33-5.54l-.35-1.56c-2.49-11.28-6.92-21.97-13.16-31.76l-.86-1.35c-1.68-2.63-1.45-6,.56-8.39l10.84-12.85c2.38-2.82,2.2-7.08-.41-9.69l-8.25-8.25c-2.65-2.65-6.82-2.83-9.69-.41l-12.85,10.85c-2.39,2.02-5.76,2.24-8.39.56l-1.35-.86c-9.77-6.24-20.46-10.67-31.76-13.17l-1.56-.35c-3.05-.68-5.27-3.22-5.53-6.33l-1.42-16.74c-.32-3.74-3.39-6.56-7.14-6.56h-11.67c-3.69,0-6.83,2.88-7.14,6.56l-1.42,16.74c-.26,3.11-2.49,5.65-5.53,6.33l-1.56.35c-11.3,2.5-21.98,6.93-31.76,13.17l-1.35.86c-2.63,1.68-6,1.46-8.39-.56l-12.85-10.85c-2.87-2.42-7.04-2.24-9.69.41l-8.25,8.25c-2.61,2.61-2.79,6.87-.41,9.69l10.85,12.85c2.01,2.39,2.24,5.76.56,8.39l-.86,1.35c-6.25,9.79-10.68,20.47-13.17,31.76l-.35,1.57c-.67,3.05-3.22,5.27-6.33,5.53l-16.74,1.41c-3.68.31-6.56,3.45-6.56,7.14v11.67c0,3.69,2.88,6.83,6.56,7.14Z"></path> <path class="cls-1" d="m166.98,189.64v-13.46h14.5v13.24c2.92-.03,5.85-.04,8.8-.05v-17.87h19.33v18.02c2.94.05,5.88.1,8.8.18v-13.51h14.5v8.22c2.65-2,5.15-4.17,7.5-6.51v-15.02l-40.46-31.26-40.46,31.26v26.97c2.49-.07,4.99-.14,7.5-.19Zm32.96-47.78c4.51,0,8.17,3.67,8.17,8.17s-3.67,8.17-8.17,8.17-8.17-3.67-8.17-8.17,3.67-8.17,8.17-8.17Z"></path> <path class="cls-1" d="m125.28,155.22h3.03v5.09h-2.64c6.59,12.51,16.76,22.84,29.13,29.66.66-.02,1.31-.05,1.97-.07v-23.67l-1.51,1.16h-12.15c-1.3,0-1.86-1.65-.83-2.44l22.17-17.13v-3.71h4.2v.47l18.74-14.48h-8.48v-60.41h-32.75v34.21h-24.74v46.62c1.09,3.11,2.38,6.12,3.87,9.02v-4.33Zm24.47,12.19h4.2v5.09h-4.2v-5.09Zm0,11.64h4.2v5.09h-4.2v-5.09Zm22.05-104.8h4.2v5.09h-4.2v-5.09Zm0,34.93h4.2v5.09h-4.2v-5.09Zm0,11.64h4.2v5.09h-4.2v-5.09Zm0,11.64h4.2v5.09h-4.2v-5.09Zm-7.35-58.22h4.2v5.09h-4.2v-5.09Zm0,11.64h4.2v5.09h-4.2v-5.09Zm0,11.64h4.2v5.09h-4.2v-5.09Zm0,23.29h4.2v5.09h-4.2v-5.09Zm-7.35-23.29h4.2v5.09h-4.2v-5.09Zm0,11.64h4.2v5.09h-4.2v-5.09Zm0,23.29h4.2v5.09h-4.2v-5.09Zm0,11.64h4.2v5.09h-4.2v-5.09Zm-7.35-69.87h4.2v5.09h-4.2v-5.09Zm0,11.64h4.2v5.09h-4.2v-5.09Zm0,11.64h4.2v5.09h-4.2v-5.09Zm0,23.29h4.2v5.09h-4.2v-5.09Zm0,11.64h4.2v5.09h-4.2v-5.09Zm-8.54-22.02h3.03v5.09h-3.03v-5.09Zm0,11.19h3.03v5.09h-3.03v-5.09Zm0,11.19h3.03v5.09h-3.03v-5.09Zm-5.31-11.19h3.03v5.09h-3.03v-5.09Zm0,22.38h3.03v5.09h-3.03v-5.09Zm0,11.19h3.03v5.09h-3.03v-5.09Zm-5.31-44.76h3.03v5.09h-3.03v-5.09Zm0,22.38h3.03v5.09h-3.03v-5.09Zm0,22.38h3.03v5.09h-3.03v-5.09Zm-5.31-44.76h3.03v5.09h-3.03v-5.09Zm0,11.19h3.03v5.09h-3.03v-5.09Zm0,22.38h3.03v5.09h-3.03v-5.09Z"></path> <path class="cls-1" d="m383.18,214.42c-48.87-12.18-116.66-19.73-191.59-19.73S48.87,202.24,0,214.42c48.87-4.84,116.66-7.84,191.59-7.84s142.72,3,191.59,7.84Z"></path> <g> <path class="cls-1" d="m34.83,251.63c-2.02,0-3.88-.38-5.58-1.13-1.7-.75-3.08-1.83-4.17-3.23l3.85-4.62c.83,1.08,1.7,1.9,2.61,2.46.91.56,1.89.83,2.95.83,2.82,0,4.23-1.65,4.23-4.96v-14.23h-10.51v-5.56h17.39v19.4c0,3.7-.91,6.47-2.74,8.29-1.82,1.82-4.5,2.74-8.03,2.74Z"></path> <path class="cls-1" d="m62.91,251.46c-2.45,0-4.62-.51-6.52-1.54-1.9-1.03-3.39-2.43-4.49-4.21-1.1-1.78-1.65-3.81-1.65-6.09s.55-4.35,1.65-6.13c1.1-1.78,2.59-3.18,4.49-4.19,1.89-1.01,4.07-1.52,6.52-1.52s4.59.51,6.5,1.52c1.91,1.01,3.4,2.4,4.49,4.17s1.62,3.82,1.62,6.15-.54,4.31-1.62,6.09c-1.08,1.78-2.58,3.18-4.49,4.21-1.91,1.03-4.08,1.54-6.5,1.54Zm0-5.47c1.11,0,2.11-.26,2.99-.77.88-.51,1.58-1.25,2.09-2.2.51-.95.77-2.09.77-3.4s-.26-2.48-.77-3.42c-.51-.94-1.21-1.67-2.09-2.18-.88-.51-1.88-.77-2.99-.77s-2.11.26-2.99.77c-.88.51-1.59,1.24-2.12,2.18-.53.94-.79,2.08-.79,3.42s.26,2.44.79,3.4c.53.96,1.23,1.69,2.12,2.2.88.51,1.88.77,2.99.77Z"></path> <path class="cls-1" d="m80.43,251.12v-29.92h6.92v24.28h15v5.64h-21.92Z"></path> <path class="cls-1" d="m116.54,251.46c-2.45,0-4.62-.51-6.52-1.54-1.9-1.03-3.39-2.43-4.49-4.21-1.1-1.78-1.65-3.81-1.65-6.09s.55-4.35,1.65-6.13c1.1-1.78,2.59-3.18,4.49-4.19,1.89-1.01,4.07-1.52,6.52-1.52s4.59.51,6.5,1.52c1.91,1.01,3.4,2.4,4.49,4.17s1.62,3.82,1.62,6.15-.54,4.31-1.62,6.09c-1.08,1.78-2.58,3.18-4.49,4.21-1.91,1.03-4.08,1.54-6.5,1.54Zm0-5.47c1.11,0,2.11-.26,2.99-.77.88-.51,1.58-1.25,2.09-2.2.51-.95.77-2.09.77-3.4s-.26-2.48-.77-3.42c-.51-.94-1.21-1.67-2.09-2.18-.88-.51-1.88-.77-2.99-.77s-2.11.26-2.99.77c-.88.51-1.59,1.24-2.12,2.18-.53.94-.79,2.08-.79,3.42s.26,2.44.79,3.4c.53.96,1.23,1.69,2.12,2.2.88.51,1.88.77,2.99.77Z"></path> <path class="cls-1" d="m137.44,251.12v-24.28h-9.57v-5.64h26.07v5.64h-9.57v24.28h-6.92Z"></path> <path class="cls-1" d="m166.25,251.46c-2.62,0-4.92-.51-6.9-1.54-1.98-1.03-3.51-2.43-4.59-4.21-1.08-1.78-1.62-3.81-1.62-6.09s.53-4.35,1.6-6.13c1.07-1.78,2.53-3.18,4.38-4.19,1.85-1.01,3.95-1.52,6.28-1.52s4.28.48,6.09,1.43c1.81.96,3.24,2.32,4.29,4.1,1.05,1.78,1.58,3.91,1.58,6.39,0,.26-.01.55-.04.88-.03.33-.06.63-.09.92h-18.68v-3.89h15.17l-2.56,1.15c0-1.2-.24-2.24-.73-3.12-.49-.88-1.15-1.57-2.01-2.07-.86-.5-1.85-.75-2.99-.75s-2.14.25-3.01.75c-.87.5-1.55,1.2-2.03,2.09s-.73,1.96-.73,3.18v1.03c0,1.25.28,2.36.83,3.31.56.96,1.34,1.68,2.35,2.18,1.01.5,2.2.75,3.57.75,1.22,0,2.3-.19,3.23-.56.93-.37,1.77-.93,2.54-1.67l3.55,3.85c-1.05,1.2-2.38,2.12-3.97,2.76-1.6.64-3.43.96-5.51.96Z"></path> <path class="cls-1" d="m178.26,251.12l10.3-13.5-.13,3.67-9.87-13.16h7.48l6.24,8.59-2.82.08,6.45-8.68h7.09l-9.92,13.04v-3.59l10.26,13.55h-7.57l-6.54-9.15,2.78.38-6.5,8.76h-7.27Z"></path> <path class="cls-1" d="m233.6,251.63c-2.37,0-4.54-.38-6.52-1.13-1.98-.75-3.7-1.83-5.17-3.23-1.47-1.4-2.61-3.03-3.42-4.92-.81-1.88-1.22-3.95-1.22-6.2s.41-4.32,1.22-6.2c.81-1.88,1.96-3.52,3.44-4.92,1.48-1.4,3.22-2.47,5.21-3.23,1.99-.75,4.19-1.13,6.58-1.13,2.65,0,5.04.44,7.16,1.33,2.12.88,3.91,2.17,5.36,3.85l-4.44,4.1c-1.08-1.14-2.26-1.99-3.55-2.54s-2.68-.83-4.19-.83-2.78.23-3.97.68c-1.2.46-2.23,1.11-3.1,1.97-.87.85-1.54,1.87-2.01,3.03-.47,1.17-.71,2.46-.71,3.89s.24,2.68.71,3.85c.47,1.17,1.14,2.19,2.01,3.06.87.87,1.89,1.53,3.08,1.99,1.18.46,2.49.68,3.91.68s2.7-.22,4-.66c1.3-.44,2.56-1.19,3.78-2.24l3.93,5c-1.62,1.23-3.51,2.17-5.66,2.82-2.15.65-4.29.98-6.43.98Zm5.77-4.7v-11.24h6.33v12.14l-6.33-.9Z"></path> <path class="cls-1" d="m281.09,227.78c1.82,0,3.44.36,4.85,1.09s2.52,1.84,3.33,3.33c.81,1.5,1.22,3.41,1.22,5.75v13.16h-6.67v-12.14c0-1.85-.38-3.22-1.15-4.1-.77-.88-1.85-1.33-3.25-1.33-.97,0-1.84.22-2.61.66-.77.44-1.37,1.1-1.79,1.99-.43.88-.64,2.01-.64,3.38v11.54h-6.67v-12.14c0-1.85-.38-3.22-1.13-4.1s-1.83-1.33-3.23-1.33c-.97,0-1.84.22-2.61.66-.77.44-1.37,1.1-1.79,1.99-.43.88-.64,2.01-.64,3.38v11.54h-6.67v-22.99h6.37v6.28l-1.2-1.84c.8-1.57,1.93-2.76,3.4-3.57,1.47-.81,3.14-1.22,5.02-1.22,2.11,0,3.95.53,5.53,1.6s2.63,2.7,3.14,4.89l-2.35-.64c.77-1.79,2-3.22,3.7-4.27,1.7-1.05,3.64-1.58,5.83-1.58Z"></path> <path class="cls-1" d="m296.47,251.12v-31.71h6.67v13.38l-.43,6.8.13,6.84v4.7h-6.37Zm13.59.34c-2.02,0-3.76-.43-5.21-1.28s-2.56-2.16-3.33-3.91c-.77-1.75-1.15-3.97-1.15-6.65s.41-4.93,1.22-6.67c.81-1.74,1.94-3.03,3.4-3.89s3.15-1.28,5.09-1.28c2.17,0,4.11.48,5.83,1.45s3.09,2.34,4.1,4.1c1.01,1.77,1.52,3.86,1.52,6.28s-.51,4.47-1.52,6.24c-1.01,1.77-2.38,3.14-4.1,4.12-1.72.98-3.67,1.47-5.83,1.47Zm-1.15-5.47c1.11,0,2.1-.26,2.97-.77.87-.51,1.57-1.25,2.09-2.2.53-.95.79-2.09.79-3.4s-.26-2.48-.79-3.42c-.53-.94-1.23-1.67-2.09-2.18-.87-.51-1.86-.77-2.97-.77s-2.11.26-2.99.77c-.88.51-1.58,1.24-2.09,2.18-.51.94-.77,2.08-.77,3.42s.26,2.44.77,3.4c.51.96,1.21,1.69,2.09,2.2.88.51,1.88.77,2.99.77Z"></path> <path class="cls-1" d="m333.35,251.12h-6.92v-29.92h6.92v29.92Zm14.1-12.27h-14.62v-5.86h14.62v5.86Zm-.51-17.65h6.92v29.92h-6.92v-29.92Z"></path> </g> </g> </svg> 